<svg xmlns="http://www.w3.org/2000/svg" viewBox="0 0 200 200">
  <defs>
    <style>
      .cls-1 {
        fill: #a8b2ef;
      }

      .cls-2 {
        fill: #5c6bc4;
      }

      .cls-3 {
        fill: #e6edf5;
      }

      .cls-4 {
        fill: #fd3d96;
      }

      .cls-5 {
        fill: #fd5ca6;
      }

      .cls-6 {
        fill: #c2186c;
      }

      .cls-7 {
        fill: #fff5f5;
      }

      .cls-8 {
        fill: #b0dde9;
      }

      .cls-9 {
        fill: #8ed0e1;
      }

      .cls-10 {
        fill: #56bcd6;
      }

      .cls-11 {
        fill: #17b0ce;
      }

      .cls-12 {
        fill: #fbc56d;
      }

      .cls-13 {
        fill: #fd73c4;
      }
    </style>
  </defs>
  <g id="Admin" transform="translate(-727 -403)">
    <g id="_010-code" data-name="010-code" transform="translate(727 403)">
      <path id="Path_140" data-name="Path 140" class="cls-1" d="M162.924,177.717a99.973,99.973,0,1,1,17.8-18.688A19.92,19.92,0,0,0,162.924,177.717Z"/>
      <path id="Path_141" data-name="Path 141" class="cls-2" d="M285.7,62.738,273.89,60.376a31.05,31.05,0,0,0-2.518-6.09l6.678-10.018a3.906,3.906,0,0,0-.488-4.929L273.8,35.583a3.906,3.906,0,0,0-4.929-.488l-10.018,6.679a31.05,31.05,0,0,0-6.09-2.518l-2.362-11.811a3.906,3.906,0,0,0-3.83-3.14h-5.314a3.906,3.906,0,0,0-3.83,3.14l-2.362,11.811a31.05,31.05,0,0,0-6.09,2.518l-10.018-6.679a3.906,3.906,0,0,0-4.929.488l-3.757,3.757a3.906,3.906,0,0,0-.488,4.929l6.678,10.018a31.073,31.073,0,0,0-2.518,6.09l-11.811,2.362a3.906,3.906,0,0,0-3.14,3.83v5.314a3.906,3.906,0,0,0,3.14,3.83l11.811,2.362a31.05,31.05,0,0,0,2.518,6.09l-6.679,10.018a3.906,3.906,0,0,0,.488,4.929l3.757,3.757a3.906,3.906,0,0,0,4.929.488l10.018-6.678a31.051,31.051,0,0,0,6.09,2.518l2.362,11.811a3.906,3.906,0,0,0,3.83,3.14h5.314a3.906,3.906,0,0,0,3.83-3.14L252.768,99.2a31.052,31.052,0,0,0,6.09-2.518l10.018,6.678a3.906,3.906,0,0,0,4.929-.488l3.757-3.757a3.906,3.906,0,0,0,.488-4.929l-6.678-10.018a31.054,31.054,0,0,0,2.518-6.09L285.7,75.713a3.906,3.906,0,0,0,3.14-3.83V66.569A3.906,3.906,0,0,0,285.7,62.738Zm-41.782,16.9a10.417,10.417,0,1,1,10.417-10.417A10.417,10.417,0,0,1,243.919,79.642Z" transform="translate(-121.263 -14.81)"/>
      <path id="Path_142" data-name="Path 142" class="cls-3" d="M277.438,79.3a23.438,23.438,0,1,0,23.438,23.438A23.438,23.438,0,0,0,277.438,79.3Zm0,33.854a10.417,10.417,0,1,1,10.417-10.417A10.417,10.417,0,0,1,277.438,113.158Z" transform="translate(-154.781 -48.326)"/>
      <path id="Path_143" data-name="Path 143" class="cls-4" d="M65.016,173.882H55.823A6.823,6.823,0,0,1,49,167.059V156.823A6.824,6.824,0,0,1,55.823,150h9.192a6.823,6.823,0,0,1,6.823,6.823v10.236A6.823,6.823,0,0,1,65.016,173.882Z" transform="translate(-29.859 -91.406)"/>
      <path id="Path_144" data-name="Path 144" class="cls-5" d="M216.413,173.882H75.495A6.665,6.665,0,0,1,69,167.059V156.823A6.664,6.664,0,0,1,75.495,150H216.413a6.665,6.665,0,0,1,6.494,6.823v10.236A6.665,6.665,0,0,1,216.413,173.882Z" transform="translate(-42.047 -91.406)"/>
      <path id="Path_145" data-name="Path 145" class="cls-6" d="M73.292,167.387a3.412,3.412,0,1,1-3.412-3.412A3.412,3.412,0,0,1,73.292,167.387Zm6.823-3.412a3.412,3.412,0,1,0,3.412,3.412A3.412,3.412,0,0,0,80.116,163.975Zm10.236,0a3.412,3.412,0,1,0,3.412,3.412A3.412,3.412,0,0,0,90.351,163.975Z" transform="translate(-40.505 -99.922)"/>
      <path id="Path_146" data-name="Path 146" class="cls-7" d="M210.719,276.855a100.563,100.563,0,0,1-18.295,19.17H67.295A100.563,100.563,0,0,1,49,276.855V193.671H210.719Z" transform="translate(-29.859 -118.018)"/>
      <path id="Path_147" data-name="Path 147" class="cls-8" d="M93.353,296.024H52.412A3.412,3.412,0,0,1,49,292.612V193.67H93.353Z" transform="translate(-29.859 -118.018)"/>
      <path id="Path_148" data-name="Path 148" class="cls-9" d="M60.252,296.024h-7.84A3.412,3.412,0,0,1,49,292.612V193.67h7.84v98.942A3.412,3.412,0,0,0,60.252,296.024Z" transform="translate(-29.859 -118.018)"/>
      <path id="Path_149" data-name="Path 149" class="cls-10" d="M66.468,273.328V270.41a1.953,1.953,0,0,1,1.953-1.953H91.809a1.953,1.953,0,0,1,1.953,1.953v2.917a1.953,1.953,0,0,1-1.953,1.953H68.421A1.953,1.953,0,0,1,66.468,273.328Zm1.953-11.694H88.4a1.953,1.953,0,0,0,1.953-1.953v-2.917A1.953,1.953,0,0,0,88.4,254.81H68.421a1.953,1.953,0,0,0-1.953,1.953v2.917A1.953,1.953,0,0,0,68.421,261.633Zm26.8,47.765h-26.8a1.953,1.953,0,0,0-1.953,1.953v2.918a1.953,1.953,0,0,0,1.953,1.953h26.8a1.953,1.953,0,0,0,1.953-1.953v-2.918A1.953,1.953,0,0,0,95.221,309.4Zm-26.8-6.823H88.4a1.953,1.953,0,0,0,1.953-1.953V297.7a1.953,1.953,0,0,0-1.953-1.953H68.421a1.953,1.953,0,0,0-1.953,1.953v2.918A1.953,1.953,0,0,0,68.421,302.575Zm26.8-20.471h-26.8a1.953,1.953,0,0,0-1.953,1.953v2.917a1.953,1.953,0,0,0,1.953,1.953h26.8a1.953,1.953,0,0,0,1.953-1.953v-2.917A1.953,1.953,0,0,0,95.221,282.1Z" transform="translate(-40.504 -155.275)"/>
      <path id="Path_150" data-name="Path 150" class="cls-11" d="M97.174,221.827v2.917a1.953,1.953,0,0,1-1.953,1.953h-26.8a1.953,1.953,0,0,1-1.953-1.953v-2.917a1.953,1.953,0,0,1,1.953-1.953h26.8A1.953,1.953,0,0,1,97.174,221.827Z" transform="translate(-40.504 -133.986)"/>
      <path id="Path_151" data-name="Path 151" class="cls-12" d="M180.013,224.744v-2.917a1.953,1.953,0,0,1,1.953-1.953h19.976a1.953,1.953,0,0,1,1.953,1.953v2.917a1.953,1.953,0,0,1-1.953,1.953H181.966A1.953,1.953,0,0,1,180.013,224.744Zm69.694,22.424H199.025a1.953,1.953,0,0,0-1.953,1.953v2.917a1.953,1.953,0,0,0,1.953,1.953h50.682a1.953,1.953,0,0,0,1.953-1.953v-2.917A1.953,1.953,0,0,0,249.707,247.168Zm-10.235,27.294H199.025a1.953,1.953,0,0,0-1.953,1.953v2.918a1.953,1.953,0,0,0,1.953,1.953h40.447a1.953,1.953,0,0,0,1.953-1.953v-2.918A1.953,1.953,0,0,0,239.472,274.462Zm-40.447-6.823h23.388a1.953,1.953,0,0,0,1.953-1.953v-2.917a1.953,1.953,0,0,0-1.953-1.953H199.025a1.953,1.953,0,0,0-1.953,1.953v2.917A1.953,1.953,0,0,0,199.025,267.639ZM277,247.168H260.437a1.953,1.953,0,0,0-1.953,1.953v2.917a1.953,1.953,0,0,0,1.953,1.953H277a1.953,1.953,0,0,0,1.953-1.953v-2.917A1.953,1.953,0,0,0,277,247.168Zm-95.036-6.824H215.59a1.953,1.953,0,0,0,1.953-1.953v-2.917a1.953,1.953,0,0,0-1.953-1.953H181.966a1.953,1.953,0,0,0-1.953,1.953v2.917A1.953,1.953,0,0,0,181.966,240.344ZM215.59,288.11H181.966a1.953,1.953,0,0,0-1.953,1.953v2.918a1.953,1.953,0,0,0,1.953,1.953H215.59a1.953,1.953,0,0,0,1.953-1.953v-2.918A1.953,1.953,0,0,0,215.59,288.11Z" transform="translate(-109.695 -133.986)"/>
      <path id="Path_152" data-name="Path 152" class="cls-13" d="M190.248,262.769v2.917a1.953,1.953,0,0,1-1.953,1.953h-6.329a1.953,1.953,0,0,1-1.953-1.953v-2.917a1.953,1.953,0,0,1,1.953-1.953h6.329A1.953,1.953,0,0,1,190.248,262.769Zm66.283-1.953H233.142a1.953,1.953,0,0,0-1.953,1.953v2.917a1.953,1.953,0,0,0,1.953,1.953H256.53a1.953,1.953,0,0,0,1.953-1.953v-2.917A1.953,1.953,0,0,0,256.53,260.815Zm-68.236,13.647h-6.329a1.953,1.953,0,0,0-1.953,1.953v2.918a1.953,1.953,0,0,0,1.953,1.953h6.329a1.953,1.953,0,0,0,1.953-1.953v-2.918A1.953,1.953,0,0,0,188.294,274.462ZM234.6,224.744v-2.917a1.953,1.953,0,0,0-1.953-1.953H212.671a1.953,1.953,0,0,0-1.953,1.953v2.917a1.953,1.953,0,0,0,1.953,1.953h19.976A1.953,1.953,0,0,0,234.6,224.744Zm-46.307,22.424h-6.329a1.953,1.953,0,0,0-1.953,1.953v2.917a1.953,1.953,0,0,0,1.953,1.953h6.329a1.953,1.953,0,0,0,1.953-1.953v-2.917A1.953,1.953,0,0,0,188.294,247.168Z" transform="translate(-109.695 -133.986)"/>
    </g>
  </g>
</svg>
