<svg xmlns="http://www.w3.org/2000/svg" xmlns:xlink="http://www.w3.org/1999/xlink" width="226.79" height="208.597" viewBox="0 0 226.79 208.597">
  <defs>
    <linearGradient id="linear-gradient" y1="0.5" x2="1" y2="0.5" gradientUnits="objectBoundingBox">
      <stop offset="0" stop-color="#88eebe"/>
      <stop offset="1" stop-color="#17abfe"/>
    </linearGradient>
    <linearGradient id="linear-gradient-2" x1="0.181" y1="0.634" x2="1.132" y2="0.276" gradientUnits="objectBoundingBox">
      <stop offset="0" stop-color="#007acd"/>
      <stop offset="1" stop-color="#39cbff"/>
    </linearGradient>
    <linearGradient id="linear-gradient-3" y1="0.5" x2="1" y2="0.5" gradientUnits="objectBoundingBox">
      <stop offset="0" stop-color="#f3f3f3"/>
      <stop offset="1" stop-color="#d9e1e4"/>
    </linearGradient>
    <clipPath id="clip-path">
      <circle id="Ellipse_70" data-name="Ellipse 70" cx="48.567" cy="48.567" r="48.567"/>
    </clipPath>
    <linearGradient id="linear-gradient-4" x1="0.512" y1="0.9" x2="0.458" y2="-0.321" gradientUnits="objectBoundingBox">
      <stop offset="0" stop-color="#f3f3f3"/>
      <stop offset="1" stop-color="#39cbff"/>
    </linearGradient>
    <linearGradient id="linear-gradient-5" y1="0.5" x2="1.001" y2="0.5" gradientUnits="objectBoundingBox">
      <stop offset="0" stop-color="#ffdf7d"/>
      <stop offset="1" stop-color="#feb422"/>
    </linearGradient>
    <linearGradient id="linear-gradient-6" x1="0.117" y1="0.787" x2="1.01" y2="-0.407" xlink:href="#linear-gradient-4"/>
    <linearGradient id="linear-gradient-7" x1="0.924" y1="0.721" x2="-0.237" y2="-0.423" xlink:href="#linear-gradient-4"/>
    <linearGradient id="linear-gradient-8" x1="-0.005" y1="0.502" x2="0.998" y2="0.502" xlink:href="#linear-gradient-5"/>
    <linearGradient id="linear-gradient-9" x1="0" y1="0.5" x2="1" y2="0.5" xlink:href="#linear-gradient-5"/>
    <linearGradient id="linear-gradient-10" x1="0" y1="0.501" x2="1" y2="0.501" xlink:href="#linear-gradient-2"/>
    <linearGradient id="linear-gradient-11" x1="0.004" y1="0.502" x2="0.997" y2="0.502" xlink:href="#linear-gradient-5"/>
  </defs>
  <g id="noBranches" transform="translate(-1182 -90)">
    <path id="Path_1569" data-name="Path 1569" d="M77.064,208.518c-13.137,0-29.3-9.315-35.828-20.7l-36.305-62.9c-6.608-11.385-6.608-30.016,0-41.4l36.305-62.9C47.765,9.315,63.928,0,77.064,0h72.611c13.137,0,29.3,9.315,35.828,20.7l36.305,62.9c6.608,11.385,6.608,30.016,0,41.4L185.5,187.9c-6.608,11.385-22.691,20.7-35.828,20.7H77.064Z" transform="translate(1182.025 90)" fill="url(#linear-gradient)"/>
    <path id="Path_1570" data-name="Path 1570" d="M168.63,89,99.863,151.641l69.086,75.018h1.115c13.137,0,29.3-9.315,35.828-20.7l29.14-50.557Z" transform="translate(1161.637 71.859)" fill="url(#linear-gradient-2)"/>
    <g id="Group_1590" data-name="Group 1590" transform="translate(1206.144 105.605)">
      <line id="Line_86" data-name="Line 86" x2="140.923" y2="6.369" transform="translate(17.595 64.729)" fill="none" stroke="#fcfcfd" stroke-miterlimit="2" stroke-width="2" stroke-dasharray="4"/>
      <line id="Line_87" data-name="Line 87" y1="121.018" x2="78.821" transform="translate(22.372 11.385)" fill="none" stroke="#fcfcfd" stroke-miterlimit="2" stroke-width="2" stroke-dasharray="4"/>
      <line id="Line_88" data-name="Line 88" y1="62.898" x2="150.477" transform="translate(21.576 71.894)" fill="none" stroke="#fcfcfd" stroke-miterlimit="2" stroke-width="2" stroke-dasharray="4"/>
      <line id="Line_89" data-name="Line 89" y1="62.898" x2="18.949" transform="translate(150.238 82.245)" fill="none" stroke="#fcfcfd" stroke-miterlimit="2" stroke-width="2" stroke-dasharray="4"/>
      <g id="Group_1585" data-name="Group 1585" transform="translate(39.649 34.474)">
        <circle id="Ellipse_68" data-name="Ellipse 68" cx="48.567" cy="48.567" r="48.567" fill="#fff"/>
        <circle id="Ellipse_69" data-name="Ellipse 69" cx="41.401" cy="41.401" r="41.401" transform="translate(7.166 7.166)" fill="url(#linear-gradient-3)"/>
        <g id="Group_1584" data-name="Group 1584">
          <g id="Group_1583" data-name="Group 1583">
            <g id="Group_1582" data-name="Group 1582" clip-path="url(#clip-path)">
              <path id="Path_1571" data-name="Path 1571" d="M597.4,227.564V207.341c0-4.459,4.06-8.041,9.076-8.041h39.968c5.016,0,9.076,3.583,9.076,8.041v20.223" transform="translate(-185.54 -90.702)" fill="url(#linear-gradient-4)"/>
              <path id="Path_1572" data-name="Path 1572" d="M639.387,195.12l-7.643,4.379L624.1,195.12V178.4h15.287Z" transform="translate(-190.982 -86.442)" fill="url(#linear-gradient-5)"/>
              <path id="Path_1573" data-name="Path 1573" d="M622.5,210.169l8.917-5.892-8.28-4.777Z" transform="translate(-190.656 -90.743)" fill="url(#linear-gradient-6)"/>
              <path id="Path_1574" data-name="Path 1574" d="M643.017,208.869l-8.917-5.1,8.2-5.573Z" transform="translate(-193.02 -90.478)" fill="url(#linear-gradient-7)"/>
              <path id="Path_1575" data-name="Path 1575" d="M659.725,168.752a3.534,3.534,0,0,1-3.5,3.5H655.9a3.534,3.534,0,0,1-3.5-3.5V162.3a3.534,3.534,0,0,1,3.5-3.5h.318a3.534,3.534,0,0,1,3.5,3.5Z" transform="translate(-196.751 -82.447)" fill="url(#linear-gradient-8)"/>
              <path id="Path_1576" data-name="Path 1576" d="M647.248,163.865A17.856,17.856,0,0,1,629.414,181.7h0A17.873,17.873,0,0,1,611.5,163.865V149.534A17.873,17.873,0,0,1,629.414,131.7h0a17.856,17.856,0,0,1,17.834,17.834Z" transform="translate(-188.414 -76.923)" fill="url(#linear-gradient-9)"/>
              <path id="Path_1577" data-name="Path 1577" d="M621.762,130.48a8.419,8.419,0,0,0-6.927,3.742h-2.866a6.388,6.388,0,0,0-6.369,6.369V171.4h4.538V149.986a4.536,4.536,0,0,1,4.538-4.538h28.9a8.274,8.274,0,0,0,8.28-8.28V130.4h-30.1Z" transform="translate(-187.211 -76.658)" fill="url(#linear-gradient-10)"/>
              <path id="Path_1578" data-name="Path 1578" d="M610.3,158.8c-1.752.159-4.7,1.672-4.7,3.5v6.449c0,1.831,2.866,3.344,4.7,3.5Z" transform="translate(-187.211 -82.447)" fill="url(#linear-gradient-11)"/>
              <path id="Path_1579" data-name="Path 1579" d="M629.2,180.7a4.464,4.464,0,0,0,3.822,2.468,4.369,4.369,0,0,0,3.822-2.468" transform="translate(-192.022 -86.911)" fill="none" stroke="#477ca8" stroke-width="3"/>
              <path id="Path_1580" data-name="Path 1580" d="M612,158.9v2.866a7.4,7.4,0,1,0,14.809,0V158.9Z" transform="translate(-188.516 -82.467)" fill="none" stroke="#477ca8" stroke-width="3"/>
              <path id="Path_1581" data-name="Path 1581" d="M637.8,158.9v2.866a7.4,7.4,0,1,0,14.809,0V158.9Z" transform="translate(-193.775 -82.467)" fill="none" stroke="#477ca8" stroke-width="3"/>
              <line id="Line_90" data-name="Line 90" x1="2.707" transform="translate(430.65 80.413)" fill="#fff" stroke="#477ca8" stroke-width="3"/>
              <line id="Line_91" data-name="Line 91" x1="2.627" transform="translate(448.643 80.413)" fill="#fff" stroke="#477ca8" stroke-width="3"/>
              <line id="Line_92" data-name="Line 92" x2="6.767" transform="translate(438.293 76.433)" fill="#fff" stroke="#477ca8" stroke-width="3"/>
              <line id="Line_93" data-name="Line 93" y2="18.63" transform="translate(440.204 117.754)" fill="none" stroke="#fff" stroke-width="3"/>
            </g>
          </g>
        </g>
      </g>
      <circle id="Ellipse_71" data-name="Ellipse 71" cx="5.334" cy="5.334" r="5.334" transform="translate(98.168)" fill="none" stroke="#fcfcfd" stroke-width="3"/>
      <path id="Path_1582" data-name="Path 1582" d="M47.816,95.258A8.758,8.758,0,1,1,39.058,86.5,8.835,8.835,0,0,1,47.816,95.258Z" transform="translate(-30.3 -33.236)" fill="none" stroke="#fcfcfd" stroke-width="3"/>
      <path id="Path_1583" data-name="Path 1583" d="M44.854,96.277A4.777,4.777,0,1,1,40.077,91.5,4.791,4.791,0,0,1,44.854,96.277Z" transform="translate(-31.319 -34.255)" fill="#fff"/>
      <path id="Path_1584" data-name="Path 1584" d="M222.816,210.658a8.758,8.758,0,1,1-8.758-8.758A8.835,8.835,0,0,1,222.816,210.658Z" transform="translate(-65.97 -56.758)" fill="none" stroke="#fcfcfd" stroke-width="3"/>
      <path id="Path_1585" data-name="Path 1585" d="M219.954,211.677a4.777,4.777,0,1,1-4.777-4.777A4.791,4.791,0,0,1,219.954,211.677Z" transform="translate(-67.009 -57.777)" fill="#88eebe"/>
      <g id="Group_1587" data-name="Group 1587" transform="translate(3.416 114.485)">
        <g id="Group_1586" data-name="Group 1586" transform="translate(0 0)">
          <circle id="Ellipse_72" data-name="Ellipse 72" cx="13.057" cy="13.057" r="13.057" transform="translate(0 18.466) rotate(-45)" fill="#fff"/>
          <path id="Path_1586" data-name="Path 1586" d="M54.151,171.089a11.863,11.863,0,1,1-11.863,11.863,11.893,11.893,0,0,1,11.863-11.863m0-2.389A14.251,14.251,0,1,0,68.4,182.952,14.237,14.237,0,0,0,54.151,168.7Z" transform="translate(-35.673 -164.476)" fill="#fcfcfd"/>
        </g>
        <path id="Path_1587" data-name="Path 1587" d="M51.5,183.216a5.016,5.016,0,1,0,5.016-5.016A5,5,0,0,0,51.5,183.216Z" transform="translate(-38.037 -166.413)" fill="#39cbff" stroke="#fcfcfd" stroke-width="3"/>
        <path id="Path_1588" data-name="Path 1588" d="M51.816,191.5H59.3a5,5,0,0,1,5.016,5.016v.4a12.7,12.7,0,0,1-17.516,0v-.4A5,5,0,0,1,51.816,191.5Z" transform="translate(-37.079 -169.123)" fill="#39cbff" stroke="#fcfcfd" stroke-width="3"/>
      </g>
      <g id="Group_1589" data-name="Group 1589" transform="translate(155.28 55.5)">
        <g id="Group_1588" data-name="Group 1588" transform="translate(0 0)">
          <circle id="Ellipse_73" data-name="Ellipse 73" cx="13.057" cy="13.057" r="13.057" transform="translate(0 25.425) rotate(-76.814)" fill="#fff"/>
          <path id="Path_1589" data-name="Path 1589" d="M241.452,93.489a11.863,11.863,0,1,1-11.863,11.863,11.893,11.893,0,0,1,11.863-11.863m0-2.389A14.251,14.251,0,1,0,255.7,105.351,14.237,14.237,0,0,0,241.452,91.1Z" transform="translate(-225.714 -89.673)" fill="#fcfcfd"/>
        </g>
        <path id="Path_1590" data-name="Path 1590" d="M238.8,105.616a5.016,5.016,0,1,0,5.016-5.016A5.046,5.046,0,0,0,238.8,105.616Z" transform="translate(-228.078 -91.61)" fill="#88eebe" stroke="#fcfcfd" stroke-width="3"/>
        <path id="Path_1591" data-name="Path 1591" d="M239.116,113.9H246.6a5,5,0,0,1,5.016,5.016v.4a12.7,12.7,0,0,1-17.516,0v-.4A5,5,0,0,1,239.116,113.9Z" transform="translate(-227.12 -94.321)" fill="#88eebe" stroke="#fcfcfd" stroke-width="3"/>
      </g>
      <line id="Line_94" data-name="Line 94" y1="48.805" x2="85.111" transform="translate(15.207 8.201)" fill="none" stroke="#fcfcfd" stroke-miterlimit="2" stroke-width="2" stroke-dasharray="4"/>
      <line id="Line_95" data-name="Line 95" x1="52.547" y1="53.503" transform="translate(108.359 8.997)" fill="none" stroke="#fcfcfd" stroke-miterlimit="2" stroke-width="2" stroke-dasharray="4"/>
      <line id="Line_96" data-name="Line 96" x1="8.599" y1="48.965" transform="translate(9.156 69.506)" fill="none" stroke="#fcfcfd" stroke-miterlimit="2" stroke-width="2" stroke-dasharray="4"/>
      <line id="Line_97" data-name="Line 97" x2="105.095" y2="15.127" transform="translate(35.111 137.18)" fill="none" stroke="#fcfcfd" stroke-miterlimit="2" stroke-width="2" stroke-dasharray="4"/>
    </g>
    <g id="Group_1593" data-name="Group 1593" transform="translate(1266.175 169.06)">
      <g id="Group_1591" data-name="Group 1591" transform="translate(0.159 12.493)">
        <line id="Line_98" data-name="Line 98" x2="36.783" transform="translate(5.812 1.838)" fill="#de297b" stroke="#b5d1de" stroke-width="2"/>
        <line id="Line_99" data-name="Line 99" x2="36.783" transform="translate(5.812 7.332)" fill="#de297b" stroke="#b5d1de" stroke-width="2"/>
        <line id="Line_100" data-name="Line 100" x2="36.783" transform="translate(5.812 12.745)" fill="#de297b" stroke="#b5d1de" stroke-width="2"/>
        <line id="Line_101" data-name="Line 101" x2="37.42" transform="translate(5.175 18.08)" fill="#090e31" stroke="#b5d1de" stroke-width="2"/>
        <line id="Line_102" data-name="Line 102" x2="31.528" transform="translate(5.812 23.653)" fill="#de297b" stroke="#b5d1de" stroke-width="2"/>
        <line id="Line_103" data-name="Line 103" x1="2.15" transform="translate(0 1.519)" fill="#090e31" stroke="#b5d1de" stroke-width="2"/>
        <line id="Line_104" data-name="Line 104" x1="2.15" transform="translate(0.637 7.332)" fill="#de297b" stroke="#b5d1de" stroke-width="2"/>
        <line id="Line_105" data-name="Line 105" x1="2.15" transform="translate(0.637 12.745)" fill="#de297b" stroke="#b5d1de" stroke-width="2"/>
        <line id="Line_106" data-name="Line 106" x1="2.15" transform="translate(0.637 18.239)" fill="#de297b" stroke="#b5d1de" stroke-width="2"/>
        <line id="Line_107" data-name="Line 107" x1="1.831" transform="translate(0.955 23.653)" fill="#de297b" stroke="#b5d1de" stroke-width="2"/>
        <path id="Path_1592" data-name="Path 1592" d="M168.507,116.352A1.353,1.353,0,1,1,167.154,115,1.294,1.294,0,0,1,168.507,116.352Z" transform="translate(-118.109 -114.992)" fill="#090e31"/>
        <path id="Path_1593" data-name="Path 1593" d="M176.007,116.352A1.353,1.353,0,1,1,174.654,115,1.294,1.294,0,0,1,176.007,116.352Z" transform="translate(-119.638 -114.992)" fill="#090e31"/>
        <path id="Path_1594" data-name="Path 1594" d="M168.507,123.552a1.353,1.353,0,1,1-1.353-1.353A1.294,1.294,0,0,1,168.507,123.552Z" transform="translate(-118.109 -116.459)" fill="#090e31"/>
        <path id="Path_1595" data-name="Path 1595" d="M176.007,123.552a1.353,1.353,0,1,1-1.354-1.353A1.294,1.294,0,0,1,176.007,123.552Z" transform="translate(-119.638 -116.459)" fill="#090e31"/>
        <path id="Path_1596" data-name="Path 1596" d="M168.507,130.752a1.353,1.353,0,1,1-2.707,0,1.4,1.4,0,0,1,1.353-1.353A1.294,1.294,0,0,1,168.507,130.752Z" transform="translate(-118.109 -117.927)" fill="#090e31"/>
        <path id="Path_1597" data-name="Path 1597" d="M176.007,130.752a1.353,1.353,0,1,1-2.707,0,1.4,1.4,0,0,1,1.353-1.353A1.294,1.294,0,0,1,176.007,130.752Z" transform="translate(-119.638 -117.927)" fill="#090e31"/>
        <path id="Path_1598" data-name="Path 1598" d="M168.507,137.952a1.353,1.353,0,1,1-1.353-1.354A1.294,1.294,0,0,1,168.507,137.952Z" transform="translate(-118.109 -119.394)" fill="#090e31"/>
        <path id="Path_1599" data-name="Path 1599" d="M176.007,137.952a1.353,1.353,0,1,1-1.354-1.354A1.294,1.294,0,0,1,176.007,137.952Z" transform="translate(-119.638 -119.394)" fill="#090e31"/>
        <path id="Path_1600" data-name="Path 1600" d="M168.507,145.152a1.353,1.353,0,1,1-2.707,0,1.4,1.4,0,0,1,1.353-1.354A1.294,1.294,0,0,1,168.507,145.152Z" transform="translate(-118.109 -120.862)" fill="#090e31"/>
        <path id="Path_1601" data-name="Path 1601" d="M176.007,145.152a1.353,1.353,0,0,1-2.707,0,1.4,1.4,0,0,1,1.353-1.354A1.294,1.294,0,0,1,176.007,145.152Z" transform="translate(-119.638 -120.862)" fill="#090e31"/>
      </g>
      <g id="Group_1592" data-name="Group 1592">
        <path id="Path_1602" data-name="Path 1602" d="M114.617,110.383v-1.194a2.346,2.346,0,0,0-2.389-2.389h-4.14a2.346,2.346,0,0,0-2.389,2.389v1.194Z" transform="translate(-105.7 -100.829)" fill="#f637a0"/>
        <path id="Path_1603" data-name="Path 1603" d="M112.84,101.37a2.07,2.07,0,1,0-2.07,2.07A2.056,2.056,0,0,0,112.84,101.37Z" transform="translate(-106.312 -99.3)" fill="#f637a0"/>
      </g>
      <line id="Line_108" data-name="Line 108" x2="22.85" transform="translate(13.057 2.946)" fill="#090e31" stroke="#b5d1de" stroke-width="2"/>
      <line id="Line_109" data-name="Line 109" x2="15.287" transform="translate(13.057 6.529)" fill="#090e31" stroke="#b5d1de" stroke-width="2"/>
    </g>
  </g>
</svg>
