<svg version="1.1" style="font-family:&quot;Lucida Grande&quot;, &quot;Lucida Sans Unicode&quot;, Arial, Helvetica, sans-serif;font-size:12px;" xmlns="http://www.w3.org/2000/svg" width="528" height="403"><desc>Created with Highcharts 4.2.3</desc><defs><clipPath id="highcharts-1"><rect x="0" y="0" width="452" height="291"></rect></clipPath></defs><rect x="0" y="0" width="528" height="403" fill="transparent" class=" highcharts-background"></rect><g class="highcharts-grid" zIndex="1"><path fill="none" d="M 50 326.5 L 502 326.5" stroke="#D8D8D8" stroke-width="1" zIndex="1" opacity="1"></path><path fill="none" d="M 50 275.5 L 502 275.5" stroke="#D8D8D8" stroke-width="1" zIndex="1" opacity="1"></path><path fill="none" d="M 50 225.5 L 502 225.5" stroke="#D8D8D8" stroke-width="1" zIndex="1" opacity="1"></path><path fill="none" d="M 50 174.5 L 502 174.5" stroke="#D8D8D8" stroke-width="1" zIndex="1" opacity="1"></path><path fill="none" d="M 50 124.5 L 502 124.5" stroke="#D8D8D8" stroke-width="1" zIndex="1" opacity="1"></path><path fill="none" d="M 50 73.5 L 502 73.5" stroke="#D8D8D8" stroke-width="1" zIndex="1" opacity="1"></path></g><g class="highcharts-grid" zIndex="1"></g><g class="highcharts-axis" zIndex="2"></g><g class="highcharts-axis" zIndex="2"><path fill="none" d="M 50 326.5 L 502 326.5" stroke="#C0D0E0" stroke-width="1" zIndex="7"></path></g><g class="highcharts-series-group" zIndex="3"><path fill="#4572A7" fill-opacity="0.25" zIndex="-1" d="M 0 0"></path><g class="highcharts-series highcharts-series-0" zIndex="0.1" transform="translate(50,35) scale(1 1)" clip-path="url(https://akankshapaliwal.talentlms.com/dashboard#highcharts-1)"><path fill="#4572A7" d="M 7.290322580645161 291 C 7.290322580645161 291 16.038709677419355 291 21.870967741935484 291 C 27.70322580645161 291 30.619354838709675 291 36.45161290322581 291 C 42.28387096774194 291 45.2 291 51.03225806451613 291 C 56.86451612903225 291 59.780645161290316 291 65.61290322580645 291 C 71.44516129032259 291 74.36129032258066 291 80.19354838709678 291 C 86.02580645161291 291 88.94193548387098 291 94.7741935483871 291 C 100.60645161290324 291 103.5225806451613 291 109.35483870967742 291 C 115.18709677419356 291 118.1032258064516 291 123.93548387096774 291 C 129.76774193548385 291 132.68387096774194 291 138.51612903225805 291 C 144.3483870967742 291 147.26451612903224 291 153.09677419354838 291 C 158.9290322580645 291 161.84516129032258 291 167.6774193548387 291 C 173.50967741935483 291 176.42580645161289 291 182.25806451612902 291 C 188.09032258064514 291 191.00645161290322 291 196.83870967741933 291 C 202.67096774193547 291 205.58709677419355 291 211.41935483870967 291 C 217.2516129032258 291 220.16774193548386 291 225.99999999999997 291 C 231.8322580645161 291 234.7483870967742 189.7826086956522 240.5806451612903 189.7826086956522 C 246.41290322580645 189.7826086956522 249.3290322580645 291 255.16129032258064 291 C 260.9935483870968 291 263.9096774193548 291 269.741935483871 291 C 275.57419354838714 291 278.49032258064517 291 284.3225806451613 291 C 290.15483870967745 291 293.07096774193553 189.7826086956522 298.90322580645164 189.7826086956522 C 304.73548387096776 189.7826086956522 307.65161290322584 220.1478260869565 313.48387096774195 240.3913043478261 C 319.31612903225806 260.6347826086957 322.23225806451615 291 328.06451612903226 291 C 333.89677419354837 291 336.81290322580645 37.95652173913044 342.64516129032256 37.95652173913044 C 348.47741935483873 37.95652173913044 351.39354838709676 37.95652173913044 357.2258064516129 37.95652173913044 C 363.0580645161291 37.95652173913044 365.9741935483871 291 371.80645161290323 291 C 377.63870967741934 291 380.55483870967737 291 386.38709677419354 291 C 392.21935483870965 291 395.13548387096773 189.7826086956522 400.9677419354839 189.7826086956522 C 406.8 189.7826086956522 409.71612903225815 189.7826086956522 415.5483870967742 189.7826086956522 C 421.3806451612903 189.7826086956522 424.2967741935484 139.17391304347825 430.1290322580645 139.17391304347825 C 435.9612903225807 139.17391304347825 444.7096774193548 240.3913043478261 444.7096774193548 240.3913043478261 L 444.7096774193548 291 C 444.7096774193548 291 435.9612903225807 291 430.1290322580645 291 C 424.2967741935484 291 421.3806451612903 291 415.5483870967742 291 C 409.71612903225815 291 406.8 291 400.9677419354839 291 C 395.13548387096773 291 392.21935483870965 291 386.38709677419354 291 C 380.55483870967737 291 377.63870967741934 291 371.80645161290323 291 C 365.9741935483871 291 363.0580645161291 291 357.2258064516129 291 C 351.39354838709676 291 348.47741935483873 291 342.64516129032256 291 C 336.81290322580645 291 333.89677419354837 291 328.06451612903226 291 C 322.23225806451615 291 319.31612903225806 291 313.48387096774195 291 C 307.65161290322584 291 304.73548387096776 291 298.90322580645164 291 C 293.07096774193553 291 290.15483870967745 291 284.3225806451613 291 C 278.49032258064517 291 275.57419354838714 291 269.741935483871 291 C 263.9096774193548 291 260.9935483870968 291 255.16129032258064 291 C 249.3290322580645 291 246.41290322580645 291 240.5806451612903 291 C 234.7483870967742 291 231.8322580645161 291 225.99999999999997 291 C 220.16774193548386 291 217.2516129032258 291 211.41935483870967 291 C 205.58709677419355 291 202.67096774193547 291 196.83870967741933 291 C 191.00645161290322 291 188.09032258064514 291 182.25806451612902 291 C 176.42580645161289 291 173.50967741935483 291 167.6774193548387 291 C 161.84516129032258 291 158.9290322580645 291 153.09677419354838 291 C 147.26451612903224 291 144.3483870967742 291 138.51612903225805 291 C 132.68387096774194 291 129.76774193548385 291 123.93548387096774 291 C 118.1032258064516 291 115.18709677419356 291 109.35483870967742 291 C 103.5225806451613 291 100.60645161290324 291 94.7741935483871 291 C 88.94193548387098 291 86.02580645161291 291 80.19354838709678 291 C 74.36129032258066 291 71.44516129032259 291 65.61290322580645 291 C 59.780645161290316 291 56.86451612903225 291 51.03225806451613 291 C 45.2 291 42.28387096774194 291 36.45161290322581 291 C 30.619354838709675 291 27.70322580645161 291 21.870967741935484 291 C 16.038709677419355 291 7.290322580645161 291 7.290322580645161 291" zIndex="0" fill-opacity="0.5"></path><path fill="none" d="M 7.290322580645161 291 C 7.290322580645161 291 16.038709677419355 291 21.870967741935484 291 C 27.70322580645161 291 30.619354838709675 291 36.45161290322581 291 C 42.28387096774194 291 45.2 291 51.03225806451613 291 C 56.86451612903225 291 59.780645161290316 291 65.61290322580645 291 C 71.44516129032259 291 74.36129032258066 291 80.19354838709678 291 C 86.02580645161291 291 88.94193548387098 291 94.7741935483871 291 C 100.60645161290324 291 103.5225806451613 291 109.35483870967742 291 C 115.18709677419356 291 118.1032258064516 291 123.93548387096774 291 C 129.76774193548385 291 132.68387096774194 291 138.51612903225805 291 C 144.3483870967742 291 147.26451612903224 291 153.09677419354838 291 C 158.9290322580645 291 161.84516129032258 291 167.6774193548387 291 C 173.50967741935483 291 176.42580645161289 291 182.25806451612902 291 C 188.09032258064514 291 191.00645161290322 291 196.83870967741933 291 C 202.67096774193547 291 205.58709677419355 291 211.41935483870967 291 C 217.2516129032258 291 220.16774193548386 291 225.99999999999997 291 C 231.8322580645161 291 234.7483870967742 189.7826086956522 240.5806451612903 189.7826086956522 C 246.41290322580645 189.7826086956522 249.3290322580645 291 255.16129032258064 291 C 260.9935483870968 291 263.9096774193548 291 269.741935483871 291 C 275.57419354838714 291 278.49032258064517 291 284.3225806451613 291 C 290.15483870967745 291 293.07096774193553 189.7826086956522 298.90322580645164 189.7826086956522 C 304.73548387096776 189.7826086956522 307.65161290322584 220.1478260869565 313.48387096774195 240.3913043478261 C 319.31612903225806 260.6347826086957 322.23225806451615 291 328.06451612903226 291 C 333.89677419354837 291 336.81290322580645 37.95652173913044 342.64516129032256 37.95652173913044 C 348.47741935483873 37.95652173913044 351.39354838709676 37.95652173913044 357.2258064516129 37.95652173913044 C 363.0580645161291 37.95652173913044 365.9741935483871 291 371.80645161290323 291 C 377.63870967741934 291 380.55483870967737 291 386.38709677419354 291 C 392.21935483870965 291 395.13548387096773 189.7826086956522 400.9677419354839 189.7826086956522 C 406.8 189.7826086956522 409.71612903225815 189.7826086956522 415.5483870967742 189.7826086956522 C 421.3806451612903 189.7826086956522 424.2967741935484 139.17391304347825 430.1290322580645 139.17391304347825 C 435.9612903225807 139.17391304347825 444.7096774193548 240.3913043478261 444.7096774193548 240.3913043478261" stroke="#4572A7" stroke-width="2" zIndex="1" stroke-linejoin="round" stroke-linecap="round"></path><path fill="none" d="M -2.709677419354839 291 L 7.290322580645161 291 C 7.290322580645161 291 16.038709677419355 291 21.870967741935484 291 C 27.70322580645161 291 30.619354838709675 291 36.45161290322581 291 C 42.28387096774194 291 45.2 291 51.03225806451613 291 C 56.86451612903225 291 59.780645161290316 291 65.61290322580645 291 C 71.44516129032259 291 74.36129032258066 291 80.19354838709678 291 C 86.02580645161291 291 88.94193548387098 291 94.7741935483871 291 C 100.60645161290324 291 103.5225806451613 291 109.35483870967742 291 C 115.18709677419356 291 118.1032258064516 291 123.93548387096774 291 C 129.76774193548385 291 132.68387096774194 291 138.51612903225805 291 C 144.3483870967742 291 147.26451612903224 291 153.09677419354838 291 C 158.9290322580645 291 161.84516129032258 291 167.6774193548387 291 C 173.50967741935483 291 176.42580645161289 291 182.25806451612902 291 C 188.09032258064514 291 191.00645161290322 291 196.83870967741933 291 C 202.67096774193547 291 205.58709677419355 291 211.41935483870967 291 C 217.2516129032258 291 220.16774193548386 291 225.99999999999997 291 C 231.8322580645161 291 234.7483870967742 189.7826086956522 240.5806451612903 189.7826086956522 C 246.41290322580645 189.7826086956522 249.3290322580645 291 255.16129032258064 291 C 260.9935483870968 291 263.9096774193548 291 269.741935483871 291 C 275.57419354838714 291 278.49032258064517 291 284.3225806451613 291 C 290.15483870967745 291 293.07096774193553 189.7826086956522 298.90322580645164 189.7826086956522 C 304.73548387096776 189.7826086956522 307.65161290322584 220.1478260869565 313.48387096774195 240.3913043478261 C 319.31612903225806 260.6347826086957 322.23225806451615 291 328.06451612903226 291 C 333.89677419354837 291 336.81290322580645 37.95652173913044 342.64516129032256 37.95652173913044 C 348.47741935483873 37.95652173913044 351.39354838709676 37.95652173913044 357.2258064516129 37.95652173913044 C 363.0580645161291 37.95652173913044 365.9741935483871 291 371.80645161290323 291 C 377.63870967741934 291 380.55483870967737 291 386.38709677419354 291 C 392.21935483870965 291 395.13548387096773 189.7826086956522 400.9677419354839 189.7826086956522 C 406.8 189.7826086956522 409.71612903225815 189.7826086956522 415.5483870967742 189.7826086956522 C 421.3806451612903 189.7826086956522 424.2967741935484 139.17391304347825 430.1290322580645 139.17391304347825 C 435.9612903225807 139.17391304347825 444.7096774193548 240.3913043478261 444.7096774193548 240.3913043478261 L 454.7096774193548 240.3913043478261" stroke-linejoin="round" visibility="visible" stroke="rgba(192,192,192,0.0001)" stroke-width="22" zIndex="2" class=" highcharts-tracker" style=""></path></g><g class="highcharts-markers highcharts-series-0 highcharts-tracker" zIndex="0.1" transform="translate(50,35) scale(1 1)" clip-path="url(https://akankshapaliwal.talentlms.com/dashboard#highcharts-2)" style=""><path fill="#4572A7" d="M 167 285 C 174.992 285 174.992 297 167 297 C 159.008 297 159.008 285 167 285 Z" stroke="#FFFFFF" stroke-width="1" visibility="hidden"></path></g><g class="highcharts-series highcharts-series-1" zIndex="0.1" transform="translate(50,35) scale(1 1)" clip-path="url(https://akankshapaliwal.talentlms.com/dashboard#highcharts-1)"><path fill="#78B25A" d="M 7.290322580645161 291 C 7.290322580645161 291 16.038709677419355 291 21.870967741935484 291 C 27.70322580645161 291 30.619354838709675 291 36.45161290322581 291 C 42.28387096774194 291 45.2 291 51.03225806451613 291 C 56.86451612903225 291 59.780645161290316 291 65.61290322580645 291 C 71.44516129032259 291 74.36129032258066 291 80.19354838709678 291 C 86.02580645161291 291 88.94193548387098 291 94.7741935483871 291 C 100.60645161290324 291 103.5225806451613 291 109.35483870967742 291 C 115.18709677419356 291 118.1032258064516 291 123.93548387096774 291 C 129.76774193548385 291 132.68387096774194 291 138.51612903225805 291 C 144.3483870967742 291 147.26451612903224 291 153.09677419354838 291 C 158.9290322580645 291 161.84516129032258 291 167.6774193548387 291 C 173.50967741935483 291 176.42580645161289 291 182.25806451612902 291 C 188.09032258064514 291 191.00645161290322 291 196.83870967741933 291 C 202.67096774193547 291 205.58709677419355 291 211.41935483870967 291 C 217.2516129032258 291 220.16774193548386 291 225.99999999999997 291 C 231.8322580645161 291 234.7483870967742 291 240.5806451612903 291 C 246.41290322580645 291 249.3290322580645 291 255.16129032258064 291 C 260.9935483870968 291 263.9096774193548 291 269.741935483871 291 C 275.57419354838714 291 278.49032258064517 291 284.3225806451613 291 C 290.15483870967745 291 293.07096774193553 291 298.90322580645164 291 C 304.73548387096776 291 307.65161290322584 291 313.48387096774195 291 C 319.31612903225806 291 322.23225806451615 291 328.06451612903226 291 C 333.89677419354837 291 336.81290322580645 291 342.64516129032256 291 C 348.47741935483873 291 351.39354838709676 291 357.2258064516129 291 C 363.0580645161291 291 365.9741935483871 291 371.80645161290323 291 C 377.63870967741934 291 380.55483870967737 291 386.38709677419354 291 C 392.21935483870965 291 395.13548387096773 291 400.9677419354839 291 C 406.8 291 409.71612903225815 291 415.5483870967742 291 C 421.3806451612903 291 424.2967741935484 291 430.1290322580645 291 C 435.9612903225807 291 444.7096774193548 291 444.7096774193548 291 L 444.7096774193548 291 C 444.7096774193548 291 435.9612903225807 291 430.1290322580645 291 C 424.2967741935484 291 421.3806451612903 291 415.5483870967742 291 C 409.71612903225815 291 406.8 291 400.9677419354839 291 C 395.13548387096773 291 392.21935483870965 291 386.38709677419354 291 C 380.55483870967737 291 377.63870967741934 291 371.80645161290323 291 C 365.9741935483871 291 363.0580645161291 291 357.2258064516129 291 C 351.39354838709676 291 348.47741935483873 291 342.64516129032256 291 C 336.81290322580645 291 333.89677419354837 291 328.06451612903226 291 C 322.23225806451615 291 319.31612903225806 291 313.48387096774195 291 C 307.65161290322584 291 304.73548387096776 291 298.90322580645164 291 C 293.07096774193553 291 290.15483870967745 291 284.3225806451613 291 C 278.49032258064517 291 275.57419354838714 291 269.741935483871 291 C 263.9096774193548 291 260.9935483870968 291 255.16129032258064 291 C 249.3290322580645 291 246.41290322580645 291 240.5806451612903 291 C 234.7483870967742 291 231.8322580645161 291 225.99999999999997 291 C 220.16774193548386 291 217.2516129032258 291 211.41935483870967 291 C 205.58709677419355 291 202.67096774193547 291 196.83870967741933 291 C 191.00645161290322 291 188.09032258064514 291 182.25806451612902 291 C 176.42580645161289 291 173.50967741935483 291 167.6774193548387 291 C 161.84516129032258 291 158.9290322580645 291 153.09677419354838 291 C 147.26451612903224 291 144.3483870967742 291 138.51612903225805 291 C 132.68387096774194 291 129.76774193548385 291 123.93548387096774 291 C 118.1032258064516 291 115.18709677419356 291 109.35483870967742 291 C 103.5225806451613 291 100.60645161290324 291 94.7741935483871 291 C 88.94193548387098 291 86.02580645161291 291 80.19354838709678 291 C 74.36129032258066 291 71.44516129032259 291 65.61290322580645 291 C 59.780645161290316 291 56.86451612903225 291 51.03225806451613 291 C 45.2 291 42.28387096774194 291 36.45161290322581 291 C 30.619354838709675 291 27.70322580645161 291 21.870967741935484 291 C 16.038709677419355 291 7.290322580645161 291 7.290322580645161 291" zIndex="0" fill-opacity="0.5"></path><path fill="none" d="M 7.290322580645161 291 C 7.290322580645161 291 16.038709677419355 291 21.870967741935484 291 C 27.70322580645161 291 30.619354838709675 291 36.45161290322581 291 C 42.28387096774194 291 45.2 291 51.03225806451613 291 C 56.86451612903225 291 59.780645161290316 291 65.61290322580645 291 C 71.44516129032259 291 74.36129032258066 291 80.19354838709678 291 C 86.02580645161291 291 88.94193548387098 291 94.7741935483871 291 C 100.60645161290324 291 103.5225806451613 291 109.35483870967742 291 C 115.18709677419356 291 118.1032258064516 291 123.93548387096774 291 C 129.76774193548385 291 132.68387096774194 291 138.51612903225805 291 C 144.3483870967742 291 147.26451612903224 291 153.09677419354838 291 C 158.9290322580645 291 161.84516129032258 291 167.6774193548387 291 C 173.50967741935483 291 176.42580645161289 291 182.25806451612902 291 C 188.09032258064514 291 191.00645161290322 291 196.83870967741933 291 C 202.67096774193547 291 205.58709677419355 291 211.41935483870967 291 C 217.2516129032258 291 220.16774193548386 291 225.99999999999997 291 C 231.8322580645161 291 234.7483870967742 291 240.5806451612903 291 C 246.41290322580645 291 249.3290322580645 291 255.16129032258064 291 C 260.9935483870968 291 263.9096774193548 291 269.741935483871 291 C 275.57419354838714 291 278.49032258064517 291 284.3225806451613 291 C 290.15483870967745 291 293.07096774193553 291 298.90322580645164 291 C 304.73548387096776 291 307.65161290322584 291 313.48387096774195 291 C 319.31612903225806 291 322.23225806451615 291 328.06451612903226 291 C 333.89677419354837 291 336.81290322580645 291 342.64516129032256 291 C 348.47741935483873 291 351.39354838709676 291 357.2258064516129 291 C 363.0580645161291 291 365.9741935483871 291 371.80645161290323 291 C 377.63870967741934 291 380.55483870967737 291 386.38709677419354 291 C 392.21935483870965 291 395.13548387096773 291 400.9677419354839 291 C 406.8 291 409.71612903225815 291 415.5483870967742 291 C 421.3806451612903 291 424.2967741935484 291 430.1290322580645 291 C 435.9612903225807 291 444.7096774193548 291 444.7096774193548 291" stroke="#78B25A" stroke-width="2" zIndex="1" stroke-linejoin="round" stroke-linecap="round"></path><path fill="none" d="M -2.709677419354839 291 L 7.290322580645161 291 C 7.290322580645161 291 16.038709677419355 291 21.870967741935484 291 C 27.70322580645161 291 30.619354838709675 291 36.45161290322581 291 C 42.28387096774194 291 45.2 291 51.03225806451613 291 C 56.86451612903225 291 59.780645161290316 291 65.61290322580645 291 C 71.44516129032259 291 74.36129032258066 291 80.19354838709678 291 C 86.02580645161291 291 88.94193548387098 291 94.7741935483871 291 C 100.60645161290324 291 103.5225806451613 291 109.35483870967742 291 C 115.18709677419356 291 118.1032258064516 291 123.93548387096774 291 C 129.76774193548385 291 132.68387096774194 291 138.51612903225805 291 C 144.3483870967742 291 147.26451612903224 291 153.09677419354838 291 C 158.9290322580645 291 161.84516129032258 291 167.6774193548387 291 C 173.50967741935483 291 176.42580645161289 291 182.25806451612902 291 C 188.09032258064514 291 191.00645161290322 291 196.83870967741933 291 C 202.67096774193547 291 205.58709677419355 291 211.41935483870967 291 C 217.2516129032258 291 220.16774193548386 291 225.99999999999997 291 C 231.8322580645161 291 234.7483870967742 291 240.5806451612903 291 C 246.41290322580645 291 249.3290322580645 291 255.16129032258064 291 C 260.9935483870968 291 263.9096774193548 291 269.741935483871 291 C 275.57419354838714 291 278.49032258064517 291 284.3225806451613 291 C 290.15483870967745 291 293.07096774193553 291 298.90322580645164 291 C 304.73548387096776 291 307.65161290322584 291 313.48387096774195 291 C 319.31612903225806 291 322.23225806451615 291 328.06451612903226 291 C 333.89677419354837 291 336.81290322580645 291 342.64516129032256 291 C 348.47741935483873 291 351.39354838709676 291 357.2258064516129 291 C 363.0580645161291 291 365.9741935483871 291 371.80645161290323 291 C 377.63870967741934 291 380.55483870967737 291 386.38709677419354 291 C 392.21935483870965 291 395.13548387096773 291 400.9677419354839 291 C 406.8 291 409.71612903225815 291 415.5483870967742 291 C 421.3806451612903 291 424.2967741935484 291 430.1290322580645 291 C 435.9612903225807 291 444.7096774193548 291 444.7096774193548 291 L 454.7096774193548 291" stroke-linejoin="round" visibility="visible" stroke="rgba(192,192,192,0.0001)" stroke-width="22" zIndex="2" class=" highcharts-tracker" style=""></path></g><g class="highcharts-markers highcharts-series-1 highcharts-tracker" zIndex="0.1" transform="translate(50,35) scale(1 1)" clip-path="url(https://akankshapaliwal.talentlms.com/dashboard#highcharts-2)" style=""></g></g><g class="highcharts-legend" zIndex="7" transform="translate(141,363)"><g zIndex="1"><g><g class="highcharts-legend-item" zIndex="1" transform="translate(8,3)"><text x="21" style="color:#333333;font-size:14px;font-weight:normal;cursor:pointer;fill:#333333;" text-anchor="start" zIndex="2" y="17">Logins</text><rect x="0" y="4" width="16" height="14" zIndex="3" fill="#4572A7"></rect></g><g class="highcharts-legend-item" zIndex="1" transform="translate(91.265625,3)"><text x="21" y="17" style="color:#333333;font-size:14px;font-weight:normal;cursor:pointer;fill:#333333;" text-anchor="start" zIndex="2"><tspan>Course completions</tspan></text><rect x="0" y="4" width="16" height="14" zIndex="3" fill="#78B25A"></rect></g></g></g></g><g class="highcharts-axis-labels highcharts-yaxis-labels" zIndex="7"><text x="35" style="color:#606060;cursor:default;font-size:12px;font-family:&quot;Open Sans&quot;,&quot;Trebuchet MS&quot;,arial,verdana,sans-serif;fill:#606060;width:164px;text-overflow:clip;" text-anchor="end" transform="translate(0,0)" y="330" opacity="1">0</text><text x="35" style="color:#606060;cursor:default;font-size:12px;font-family:&quot;Open Sans&quot;,&quot;Trebuchet MS&quot;,arial,verdana,sans-serif;fill:#606060;width:164px;text-overflow:clip;" text-anchor="end" transform="translate(0,0)" y="279" opacity="1">1</text><text x="35" style="color:#606060;cursor:default;font-size:12px;font-family:&quot;Open Sans&quot;,&quot;Trebuchet MS&quot;,arial,verdana,sans-serif;fill:#606060;width:164px;text-overflow:clip;" text-anchor="end" transform="translate(0,0)" y="228" opacity="1">2</text><text x="35" style="color:#606060;cursor:default;font-size:12px;font-family:&quot;Open Sans&quot;,&quot;Trebuchet MS&quot;,arial,verdana,sans-serif;fill:#606060;width:164px;text-overflow:clip;" text-anchor="end" transform="translate(0,0)" y="178" opacity="1">3</text><text x="35" style="color:#606060;cursor:default;font-size:12px;font-family:&quot;Open Sans&quot;,&quot;Trebuchet MS&quot;,arial,verdana,sans-serif;fill:#606060;width:164px;text-overflow:clip;" text-anchor="end" transform="translate(0,0)" y="127" opacity="1">4</text><text x="35" style="color:#606060;cursor:default;font-size:12px;font-family:&quot;Open Sans&quot;,&quot;Trebuchet MS&quot;,arial,verdana,sans-serif;fill:#606060;width:164px;text-overflow:clip;" text-anchor="end" transform="translate(0,0)" y="76" opacity="1">5</text></g><g class="highcharts-axis-labels highcharts-xaxis-labels" zIndex="7"><text x="57.29032258064516" style="color:#606060;cursor:default;font-size:12px;font-family:&quot;Open Sans&quot;,&quot;Trebuchet MS&quot;,arial,verdana,sans-serif;fill:#606060;" text-anchor="middle" transform="translate(0,0)" y="346" opacity="1">27/04</text><text x="0" style="color:#606060;cursor:default;font-size:12px;font-family:&quot;Open Sans&quot;,&quot;Trebuchet MS&quot;,arial,verdana,sans-serif;fill:#606060;" text-anchor="middle" transform="translate(0,0)" y="-9999">28/04</text><text x="0" style="color:#606060;cursor:default;font-size:12px;font-family:&quot;Open Sans&quot;,&quot;Trebuchet MS&quot;,arial,verdana,sans-serif;fill:#606060;" text-anchor="middle" transform="translate(0,0)" y="-9999">29/04</text><text x="101.03225806451611" style="color:#606060;cursor:default;font-size:12px;font-family:&quot;Open Sans&quot;,&quot;Trebuchet MS&quot;,arial,verdana,sans-serif;fill:#606060;" text-anchor="middle" transform="translate(0,0)" y="346" opacity="1">30/04</text><text x="0" style="color:#606060;cursor:default;font-size:12px;font-family:&quot;Open Sans&quot;,&quot;Trebuchet MS&quot;,arial,verdana,sans-serif;fill:#606060;" text-anchor="middle" transform="translate(0,0)" y="-9999">01/05</text><text x="0" style="color:#606060;cursor:default;font-size:12px;font-family:&quot;Open Sans&quot;,&quot;Trebuchet MS&quot;,arial,verdana,sans-serif;fill:#606060;" text-anchor="middle" transform="translate(0,0)" y="-9999">02/05</text><text x="144.7741935483871" style="color:#606060;cursor:default;font-size:12px;font-family:&quot;Open Sans&quot;,&quot;Trebuchet MS&quot;,arial,verdana,sans-serif;fill:#606060;" text-anchor="middle" transform="translate(0,0)" y="346" opacity="1">03/05</text><text x="0" style="color:#606060;cursor:default;font-size:12px;font-family:&quot;Open Sans&quot;,&quot;Trebuchet MS&quot;,arial,verdana,sans-serif;fill:#606060;" text-anchor="middle" transform="translate(0,0)" y="-9999">04/05</text><text x="0" style="color:#606060;cursor:default;font-size:12px;font-family:&quot;Open Sans&quot;,&quot;Trebuchet MS&quot;,arial,verdana,sans-serif;fill:#606060;" text-anchor="middle" transform="translate(0,0)" y="-9999">05/05</text><text x="188.51612903225805" style="color:#606060;cursor:default;font-size:12px;font-family:&quot;Open Sans&quot;,&quot;Trebuchet MS&quot;,arial,verdana,sans-serif;fill:#606060;" text-anchor="middle" transform="translate(0,0)" y="346" opacity="1">06/05</text><text x="0" style="color:#606060;cursor:default;font-size:12px;font-family:&quot;Open Sans&quot;,&quot;Trebuchet MS&quot;,arial,verdana,sans-serif;fill:#606060;" text-anchor="middle" transform="translate(0,0)" y="-9999">07/05</text><text x="0" style="color:#606060;cursor:default;font-size:12px;font-family:&quot;Open Sans&quot;,&quot;Trebuchet MS&quot;,arial,verdana,sans-serif;fill:#606060;" text-anchor="middle" transform="translate(0,0)" y="-9999">08/05</text><text x="232.25806451612902" style="color:#606060;cursor:default;font-size:12px;font-family:&quot;Open Sans&quot;,&quot;Trebuchet MS&quot;,arial,verdana,sans-serif;fill:#606060;" text-anchor="middle" transform="translate(0,0)" y="346" opacity="1">09/05</text><text x="0" style="color:#606060;cursor:default;font-size:12px;font-family:&quot;Open Sans&quot;,&quot;Trebuchet MS&quot;,arial,verdana,sans-serif;fill:#606060;" text-anchor="middle" transform="translate(0,0)" y="-9999">10/05</text><text x="0" style="color:#606060;cursor:default;font-size:12px;font-family:&quot;Open Sans&quot;,&quot;Trebuchet MS&quot;,arial,verdana,sans-serif;fill:#606060;" text-anchor="middle" transform="translate(0,0)" y="-9999">11/05</text><text x="275.99999999999994" style="color:#606060;cursor:default;font-size:12px;font-family:&quot;Open Sans&quot;,&quot;Trebuchet MS&quot;,arial,verdana,sans-serif;fill:#606060;" text-anchor="middle" transform="translate(0,0)" y="346" opacity="1">12/05</text><text x="0" style="color:#606060;cursor:default;font-size:12px;font-family:&quot;Open Sans&quot;,&quot;Trebuchet MS&quot;,arial,verdana,sans-serif;fill:#606060;" text-anchor="middle" transform="translate(0,0)" y="-9999">13/05</text><text x="0" style="color:#606060;cursor:default;font-size:12px;font-family:&quot;Open Sans&quot;,&quot;Trebuchet MS&quot;,arial,verdana,sans-serif;fill:#606060;" text-anchor="middle" transform="translate(0,0)" y="-9999">14/05</text><text x="319.741935483871" style="color:#606060;cursor:default;font-size:12px;font-family:&quot;Open Sans&quot;,&quot;Trebuchet MS&quot;,arial,verdana,sans-serif;fill:#606060;" text-anchor="middle" transform="translate(0,0)" y="346" opacity="1">15/05</text><text x="0" style="color:#606060;cursor:default;font-size:12px;font-family:&quot;Open Sans&quot;,&quot;Trebuchet MS&quot;,arial,verdana,sans-serif;fill:#606060;" text-anchor="middle" transform="translate(0,0)" y="-9999">16/05</text><text x="0" style="color:#606060;cursor:default;font-size:12px;font-family:&quot;Open Sans&quot;,&quot;Trebuchet MS&quot;,arial,verdana,sans-serif;fill:#606060;" text-anchor="middle" transform="translate(0,0)" y="-9999">17/05</text><text x="363.48387096774195" style="color:#606060;cursor:default;font-size:12px;font-family:&quot;Open Sans&quot;,&quot;Trebuchet MS&quot;,arial,verdana,sans-serif;fill:#606060;" text-anchor="middle" transform="translate(0,0)" y="346" opacity="1">18/05</text><text x="0" style="color:#606060;cursor:default;font-size:12px;font-family:&quot;Open Sans&quot;,&quot;Trebuchet MS&quot;,arial,verdana,sans-serif;fill:#606060;" text-anchor="middle" transform="translate(0,0)" y="-9999">19/05</text><text x="0" style="color:#606060;cursor:default;font-size:12px;font-family:&quot;Open Sans&quot;,&quot;Trebuchet MS&quot;,arial,verdana,sans-serif;fill:#606060;" text-anchor="middle" transform="translate(0,0)" y="-9999">20/05</text><text x="407.22580645161287" style="color:#606060;cursor:default;font-size:12px;font-family:&quot;Open Sans&quot;,&quot;Trebuchet MS&quot;,arial,verdana,sans-serif;fill:#606060;" text-anchor="middle" transform="translate(0,0)" y="346" opacity="1">21/05</text><text x="0" style="color:#606060;cursor:default;font-size:12px;font-family:&quot;Open Sans&quot;,&quot;Trebuchet MS&quot;,arial,verdana,sans-serif;fill:#606060;" text-anchor="middle" transform="translate(0,0)" y="-9999">22/05</text><text x="0" style="color:#606060;cursor:default;font-size:12px;font-family:&quot;Open Sans&quot;,&quot;Trebuchet MS&quot;,arial,verdana,sans-serif;fill:#606060;" text-anchor="middle" transform="translate(0,0)" y="-9999">23/05</text><text x="450.96774193548384" style="color:#606060;cursor:default;font-size:12px;font-family:&quot;Open Sans&quot;,&quot;Trebuchet MS&quot;,arial,verdana,sans-serif;fill:#606060;" text-anchor="middle" transform="translate(0,0)" y="346" opacity="1">24/05</text><text x="0" style="color:#606060;cursor:default;font-size:12px;font-family:&quot;Open Sans&quot;,&quot;Trebuchet MS&quot;,arial,verdana,sans-serif;fill:#606060;" text-anchor="middle" transform="translate(0,0)" y="-9999">25/05</text><text x="0" style="color:#606060;cursor:default;font-size:12px;font-family:&quot;Open Sans&quot;,&quot;Trebuchet MS&quot;,arial,verdana,sans-serif;fill:#606060;" text-anchor="middle" transform="translate(0,0)" y="-9999">26/05</text><text x="494.7096774193548" style="color:#606060;cursor:default;font-size:12px;font-family:&quot;Open Sans&quot;,&quot;Trebuchet MS&quot;,arial,verdana,sans-serif;fill:#606060;" text-anchor="middle" transform="translate(0,0)" y="346" opacity="1">27/05</text></g><g class="highcharts-tooltip" zIndex="8" style="cursor:default;padding:0;pointer-events:none;white-space:nowrap;" transform="translate(179,-9999)" opacity="0" visibility="visible"><path fill="none" d="M 3.5 0.5 L 75.5 0.5 C 78.5 0.5 78.5 0.5 78.5 3.5 L 78.5 39.5 C 78.5 42.5 78.5 42.5 75.5 42.5 L 44.5 42.5 38.5 48.5 32.5 42.5 3.5 42.5 C 0.5 42.5 0.5 42.5 0.5 39.5 L 0.5 3.5 C 0.5 0.5 0.5 0.5 3.5 0.5" isShadow="true" stroke="black" stroke-opacity="0.049999999999999996" stroke-width="5" transform="translate(1, 1)"></path><path fill="none" d="M 3.5 0.5 L 75.5 0.5 C 78.5 0.5 78.5 0.5 78.5 3.5 L 78.5 39.5 C 78.5 42.5 78.5 42.5 75.5 42.5 L 44.5 42.5 38.5 48.5 32.5 42.5 3.5 42.5 C 0.5 42.5 0.5 42.5 0.5 39.5 L 0.5 3.5 C 0.5 0.5 0.5 0.5 3.5 0.5" isShadow="true" stroke="black" stroke-opacity="0.09999999999999999" stroke-width="3" transform="translate(1, 1)"></path><path fill="none" d="M 3.5 0.5 L 75.5 0.5 C 78.5 0.5 78.5 0.5 78.5 3.5 L 78.5 39.5 C 78.5 42.5 78.5 42.5 75.5 42.5 L 44.5 42.5 38.5 48.5 32.5 42.5 3.5 42.5 C 0.5 42.5 0.5 42.5 0.5 39.5 L 0.5 3.5 C 0.5 0.5 0.5 0.5 3.5 0.5" isShadow="true" stroke="black" stroke-opacity="0.15" stroke-width="1" transform="translate(1, 1)"></path><path fill="rgba(249, 249, 249, .85)" d="M 3.5 0.5 L 75.5 0.5 C 78.5 0.5 78.5 0.5 78.5 3.5 L 78.5 39.5 C 78.5 42.5 78.5 42.5 75.5 42.5 L 44.5 42.5 38.5 48.5 32.5 42.5 3.5 42.5 C 0.5 42.5 0.5 42.5 0.5 39.5 L 0.5 3.5 C 0.5 0.5 0.5 0.5 3.5 0.5" stroke="#4572A7" stroke-width="1"></path><text x="8" zIndex="1" style="font-size:12px;color:#333333;fill:#333333;" y="20"><tspan style="font-size: 10px">08/05</tspan><tspan style="fill:#4572A7" x="8" dy="15">●</tspan><tspan dx="0"> Logins: </tspan><tspan style="font-weight:bold" dx="0">0</tspan></text></g></svg>