<svg xmlns="http://www.w3.org/2000/svg" viewBox="0 0 191.406 200">
  <defs>
    <style>
      .cls-1 {
        fill: #8835a5;
      }

      .cls-2 {
        fill: #ffdd8d;
      }

      .cls-3 {
        fill: #ffc987;
      }

      .cls-4 {
        fill: #ffe2b8;
      }

      .cls-5 {
        fill: #ffaf10;
      }

      .cls-6 {
        fill: #ff9518;
      }

      .cls-7 {
        fill: #ef8318;
      }

      .cls-8 {
        fill: #db722c;
      }

      .cls-9 {
        fill: #d9eafc;
      }

      .cls-10 {
        fill: #aec1ed;
      }

      .cls-11 {
        fill: #445ea0;
      }

      .cls-12 {
        fill: #69cdff;
      }

      .cls-13 {
        fill: #52bbef;
      }

      .cls-14 {
        fill: #37c47a;
      }

      .cls-15 {
        fill: #02af8e;
      }

      .cls-16 {
        fill: #fff;
      }
    </style>
  </defs>
  <g id="CreateCourse" transform="translate(-11)">
    <ellipse id="Ellipse_2" data-name="Ellipse 2" class="cls-1" cx="95.703" cy="95.619" rx="95.703" ry="95.619" transform="translate(11 8.761)"/>
    <path id="Path_94" data-name="Path 94" class="cls-2" d="M234.711,330.795a.4.4,0,0,0,.392.327h32.9a.4.4,0,0,0,.282-.117l12.827-12.827a5.508,5.508,0,0,1,2.248-1.363,5.988,5.988,0,0,0-8.283.149l-10.961,10.961h-29.93Z" transform="translate(-136.578 -192.293)"/>
    <path id="Path_95" data-name="Path 95" class="cls-3" d="M235.9,334.531a2.73,2.73,0,0,0,2.687,2.243h32.693a2.713,2.713,0,0,0,1.931-.8l15.134-15.134a6.541,6.541,0,0,1,1.915-1.324l-.213-.213a5.991,5.991,0,0,0-8.448,0L268.776,332.13H235.467Z" transform="translate(-137.451 -193.765)"/>
    <path id="Path_96" data-name="Path 96" class="cls-4" d="M263.989,307.08l-1.517-1.518a7.018,7.018,0,0,0-9.9,0L237.441,320.7a2.331,2.331,0,0,1-1.649.684H203.1a2.333,2.333,0,0,1-2.3-1.916l-1.442-7.93a2.333,2.333,0,0,1,2.3-2.75h13.78a7.006,7.006,0,0,0,7-7V299.64a7.006,7.006,0,0,0-7-7H183.164a6.976,6.976,0,0,0-6.643,4.8c-.01.029-.023.057-.035.086v40h63.894a6.974,6.974,0,0,0,3.352-.865c.031-.017.063-.034.1-.05a6.889,6.889,0,0,0,1.843-1.313l18.318-18.317a7.008,7.008,0,0,0,0-9.9Z" transform="translate(-101.911 -178.956)"/>
    <path id="Path_97" data-name="Path 97" class="cls-3" d="M215.436,292.643H183.163a6.976,6.976,0,0,0-6.643,4.8c-.01.029-.023.057-.035.086v6.808a6.945,6.945,0,0,1,1.2-.354,2.333,2.333,0,0,0,1.759-1.558,6.977,6.977,0,0,1,6.643-4.8h32.273a6.953,6.953,0,0,1,4.041,1.295A7.008,7.008,0,0,0,215.436,292.643Z" transform="translate(-102.23 -179.465)"/>
    <path id="Path_98" data-name="Path 98" class="cls-5" d="M55.164,281.424H11.434A97.028,97.028,0,0,0,27.95,330.267H55.164Z" transform="translate(-0.261 -172.167)"/>
    <path id="Path_99" data-name="Path 99" class="cls-6" d="M122.234,327.729a2,2,0,0,1-1.991-1.991v-54.8a2,2,0,0,1,1.991-1.991h18.814a2,2,0,0,1,1.991,1.991v54.8a2,2,0,0,1-1.991,1.991Z" transform="translate(-66.68 -164.721)"/>
    <path id="Path_100" data-name="Path 100" class="cls-7" d="M128.145,325.737v-54.8a2,2,0,0,1,1.991-1.991h-7.9a2,2,0,0,0-1.991,1.991v54.8a2,2,0,0,0,1.991,1.991h7.9A2,2,0,0,1,128.145,325.737Z" transform="translate(-66.614 -164.721)"/>
    <circle id="Ellipse_3" data-name="Ellipse 3" class="cls-8" cx="4.933" cy="4.933" r="4.933" transform="translate(59.962 146.294)"/>
    <path id="Path_101" data-name="Path 101" class="cls-9" d="M86.415,132.1a2.315,2.315,0,0,1-2.313-2.313V90.446H43.637a2,2,0,0,0-1.991,1.991v58.24a2,2,0,0,0,1.991,1.991H99.66a2,2,0,0,0,1.991-1.991V132.1H86.415Z" transform="translate(-18.442 -55.418)"/>
    <path id="Path_102" data-name="Path 102" class="cls-10" d="M49.548,150.677V92.437a2,2,0,0,1,1.991-1.991h-7.9a2,2,0,0,0-1.991,1.991v58.24a2,2,0,0,0,1.991,1.991h7.9A2,2,0,0,1,49.548,150.677Z" transform="translate(-18.442 -55.418)"/>
    <g id="Group_6" data-name="Group 6" transform="translate(34.901 47.243)">
      <path id="Path_103" data-name="Path 103" class="cls-11" d="M101.777,121.447H74a2.987,2.987,0,0,0,0,5.973h27.772v-5.973Z" transform="translate(-71.018 -121.447)"/>
      <path id="Path_104" data-name="Path 104" class="cls-11" d="M101.777,146.465H74a2.987,2.987,0,1,0,0,5.973h27.772v-5.973Z" transform="translate(-71.018 -136.502)"/>
      <path id="Path_105" data-name="Path 105" class="cls-11" d="M101.777,171.482H74a2.987,2.987,0,1,0,0,5.973h27.772v-5.973Z" transform="translate(-71.018 -151.556)"/>
      <path id="Path_106" data-name="Path 106" class="cls-11" d="M89.385,202.471H74a2.987,2.987,0,1,1,0-5.973H89.385a2.987,2.987,0,1,1,0,5.973Z" transform="translate(-71.018 -166.61)"/>
    </g>
    <path id="Path_107" data-name="Path 107" class="cls-12" d="M215.36,70.465a1.6,1.6,0,0,1,1.593-1.593h44.164V2.712A2.719,2.719,0,0,0,258.406,0H149.968a2.719,2.719,0,0,0-2.711,2.712V75.364a2.718,2.718,0,0,0,2.711,2.711H215.36V70.465Z" transform="translate(-85.723)"/>
    <path id="Path_108" data-name="Path 108" class="cls-13" d="M155.159,75.364V2.712A2.719,2.719,0,0,1,157.87,0h-7.9a2.719,2.719,0,0,0-2.711,2.712V75.364a2.718,2.718,0,0,0,2.711,2.711h7.9A2.719,2.719,0,0,1,155.159,75.364Z" transform="translate(-86.091)"/>
    <path id="Path_109" data-name="Path 109" class="cls-14" d="M215.36,110.9a1.6,1.6,0,0,1,1.593-1.593h42.268L224.441,68.041a2.213,2.213,0,0,0-3.494,0L194.344,99.6a2.214,2.214,0,0,1-3.494,0L176.756,82.881a2.214,2.214,0,0,0-3.495,0l-26,30.85V115.8a2.718,2.718,0,0,0,2.711,2.711H215.36V110.9Z" transform="translate(-85.723 -40.431)"/>
    <path id="Path_110" data-name="Path 110" class="cls-15" d="M155.159,138.219v-2.065l23.8-28.235-2.2-2.614a2.214,2.214,0,0,0-3.494,0l-26,30.85v2.065a2.718,2.718,0,0,0,2.711,2.711h7.9A2.719,2.719,0,0,1,155.159,138.219Z" transform="translate(-86.233 -62.823)"/>
    <path id="Path_111" data-name="Path 111" class="cls-16" d="M374.371,23.411a8.133,8.133,0,1,0,8.133-8.132A8.134,8.134,0,0,0,374.371,23.411Z" transform="translate(-221.681 -9.194)"/>
    <path id="Path_112" data-name="Path 112" class="cls-9" d="M379.485,23.411a8.131,8.131,0,0,1,5.576-7.716,8.133,8.133,0,1,0,0,15.433A8.133,8.133,0,0,1,379.485,23.411Z" transform="translate(-221.589 -9.194)"/>
    <path id="Path_113" data-name="Path 113" class="cls-6" d="M378.233,215.04a2,2,0,0,1-1.991,1.991H319.26a2,2,0,0,1-1.991-1.991V173.934a2,2,0,0,1,1.991-1.991h56.982a2,2,0,0,1,1.991,1.991V215.04Z" transform="translate(-188.031 -105.149)"/>
    <path id="Path_114" data-name="Path 114" class="cls-7" d="M325.171,215.04V173.934a2,2,0,0,1,1.991-1.991h-7.9a2,2,0,0,0-1.991,1.991V215.04a2,2,0,0,0,1.991,1.991h7.9A2,2,0,0,1,325.171,215.04Z" transform="translate(-187.757 -105.149)"/>
    <path id="Path_115" data-name="Path 115" class="cls-16" d="M368.811,202.1c0-2.19,1.552-3.086,3.449-1.991l15.681,9.053c1.9,1.1,1.9,2.887,0,3.982L372.26,222.2c-1.9,1.1-3.449.2-3.449-1.991Z" transform="translate(-218.362 -121.852)"/>
  </g>
</svg>
