<svg xmlns="http://www.w3.org/2000/svg" viewBox="0 0 200 199.995">
  <defs>
    <style>
      .cls-1 {
        fill: #a8b2ef;
      }

      .cls-2 {
        fill: #fd3d96;
      }

      .cls-3 {
        fill: #fd5ca6;
      }

      .cls-4 {
        fill: #c2186c;
      }

      .cls-5 {
        fill: #fff5f5;
      }

      .cls-6 {
        fill: #ffe899;
      }

      .cls-7 {
        fill: #fbc56d;
      }

      .cls-8 {
        fill: #b0dde9;
      }

      .cls-9 {
        fill: #8ed0e1;
      }

      .cls-10 {
        fill: #17b0ce;
      }

      .cls-11 {
        fill: #0573cd;
      }

      .cls-12 {
        fill: #528ed7;
      }

      .cls-13 {
        fill: #56bcd6;
      }

      .cls-14 {
        fill: #d78878;
      }

      .cls-15 {
        fill: #ca6e59;
      }

      .cls-16 {
        fill: #028f5d;
      }

      .cls-17 {
        fill: #22b27f;
      }

      .cls-18 {
        fill: #026841;
      }
    </style>
  </defs>
  <g id="CustomizePortal" transform="translate(151 -649)">
    <g id="Group_11" data-name="Group 11" transform="translate(-151 649)">
      <g id="Group_10" data-name="Group 10" transform="translate(0 0)">
        <g id="_014-customization" data-name="014-customization">
          <path id="Path_168" data-name="Path 168" class="cls-1" d="M171.484,169.914a99.7,99.7,0,0,1-72.612,30.075C44.189,199.386-.095,154.506,0,99.821a100,100,0,0,1,173.086-68.07.991.991,0,0,1-.045,1.385,5.19,5.19,0,0,0-1.556,3.712Z" transform="translate(0)"/>
          <path id="Path_169" data-name="Path 169" class="cls-2" d="M62.219,108.343H45.812A7.812,7.812,0,0,1,38,100.531V88.812A7.812,7.812,0,0,1,45.812,81H62.219a7.812,7.812,0,0,1,7.812,7.812v11.718A7.812,7.812,0,0,1,62.219,108.343Z" transform="translate(-23.156 -49.36)"/>
          <path id="Path_170" data-name="Path 170" class="cls-3" d="M68.333,108.343a7.631,7.631,0,0,1-7.435-7.812V88.812A7.631,7.631,0,0,1,68.333,81H210.087a100.39,100.39,0,0,1,14.19,19.32,5.378,5.378,0,0,1-4.681,8.023Z" transform="translate(-37.11 -49.36)"/>
          <path id="Path_171" data-name="Path 171" class="cls-4" d="M65.812,100.906A3.906,3.906,0,1,1,61.906,97,3.906,3.906,0,0,1,65.812,100.906ZM73.625,97a3.906,3.906,0,1,0,3.906,3.906A3.906,3.906,0,0,0,73.625,97Zm11.719,0a3.906,3.906,0,1,0,3.906,3.906A3.906,3.906,0,0,0,85.344,97Z" transform="translate(-35.344 -59.11)"/>
          <path id="Path_172" data-name="Path 172" class="cls-5" d="M210.437,131a100.015,100.015,0,0,1-14.3,117.185H50.178A100.388,100.388,0,0,1,38,232.266V131Z" transform="translate(-23.156 -79.829)"/>
          <path id="Path_173" data-name="Path 173" class="cls-6" d="M295.468,201.015v3.906a1.953,1.953,0,0,1-1.953,1.953H191.953A1.953,1.953,0,0,1,190,204.921v-3.906a1.953,1.953,0,0,1,1.953-1.953H293.515A1.953,1.953,0,0,1,295.468,201.015Zm-1.953,17.578H191.953A1.953,1.953,0,0,0,190,220.545v3.906a1.953,1.953,0,0,0,1.953,1.953H293.515a1.953,1.953,0,0,0,1.953-1.953v-3.906A1.953,1.953,0,0,0,293.515,218.592Zm0-39.062H191.953A1.953,1.953,0,0,0,190,181.484v3.906a1.953,1.953,0,0,0,1.953,1.953H293.515a1.953,1.953,0,0,0,1.953-1.953v-3.906A1.953,1.953,0,0,0,293.515,179.531Zm0-19.531H191.953A1.953,1.953,0,0,0,190,161.953v3.906a1.953,1.953,0,0,0,1.953,1.953H293.515a1.953,1.953,0,0,0,1.953-1.953v-3.906A1.953,1.953,0,0,0,293.515,160Zm0,78.123H191.953A1.953,1.953,0,0,0,190,240.076v3.906a1.953,1.953,0,0,0,1.953,1.953H293.515a1.953,1.953,0,0,0,1.953-1.953v-3.906A1.953,1.953,0,0,0,293.515,238.123Z" transform="translate(-115.781 -97.502)"/>
          <path id="Path_174" data-name="Path 174" class="cls-7" d="M202.7,240.076v3.906a1.953,1.953,0,0,1-1.953,1.953h-8.789A1.953,1.953,0,0,1,190,243.982v-3.906a1.953,1.953,0,0,1,1.953-1.953h8.789A1.953,1.953,0,0,1,202.7,240.076Zm-10.742-33.2h15.625a1.953,1.953,0,0,0,1.953-1.953v-3.906a1.953,1.953,0,0,0-1.953-1.953H191.953A1.953,1.953,0,0,0,190,201.015v3.906A1.953,1.953,0,0,0,191.953,206.874ZM250.547,160H191.953A1.953,1.953,0,0,0,190,161.953v3.906a1.953,1.953,0,0,0,1.953,1.953h58.594a1.953,1.953,0,0,0,1.953-1.953v-3.906A1.953,1.953,0,0,0,250.547,160ZM223.2,218.592h-31.25A1.953,1.953,0,0,0,190,220.545v3.906a1.953,1.953,0,0,0,1.953,1.953H223.2a1.953,1.953,0,0,0,1.953-1.953v-3.906A1.953,1.953,0,0,0,223.2,218.592Zm11.719-39.062H191.953A1.953,1.953,0,0,0,190,181.484v3.906a1.953,1.953,0,0,0,1.953,1.953h42.969a1.953,1.953,0,0,0,1.953-1.953v-3.906A1.953,1.953,0,0,0,234.922,179.531Z" transform="translate(-115.781 -97.502)"/>
          <path id="Path_175" data-name="Path 175" class="cls-8" d="M88.781,248.185H41.906A3.906,3.906,0,0,1,38,244.278V131H88.781Z" transform="translate(-23.156 -79.829)"/>
          <path id="Path_176" data-name="Path 176" class="cls-9" d="M50.882,248.185H41.906A3.906,3.906,0,0,1,38,244.278V131h8.976V244.278A3.906,3.906,0,0,0,50.882,248.185Z" transform="translate(-23.156 -79.829)"/>
          <path id="Path_177" data-name="Path 177" class="cls-10" d="M91.2,168.812H59.953A1.953,1.953,0,0,1,58,166.859v-3.906A1.953,1.953,0,0,1,59.953,161H91.2a1.953,1.953,0,0,1,1.953,1.953v3.906A1.953,1.953,0,0,1,91.2,168.812Z" transform="translate(-35.344 -98.111)"/>
          <path id="Path_178" data-name="Path 178" class="cls-11" d="M258.594,151.953v11.718a1.953,1.953,0,0,1-1.953,1.953h-3.906a1.953,1.953,0,0,1-1.953-1.953V151.953A1.953,1.953,0,0,1,252.734,150h3.906A1.953,1.953,0,0,1,258.594,151.953Zm-17.578,17.578h-3.906a1.953,1.953,0,0,0-1.953,1.953V183.2a1.953,1.953,0,0,0,1.953,1.953h3.906a1.953,1.953,0,0,0,1.953-1.953V171.484A1.953,1.953,0,0,0,241.016,169.531Zm-27.344,19.531h-3.906a1.953,1.953,0,0,0-1.953,1.953v11.718a1.953,1.953,0,0,0,1.953,1.953h3.906a1.953,1.953,0,0,0,1.953-1.953V191.015A1.953,1.953,0,0,0,213.672,189.062Zm-7.812,39.062h-3.906A1.953,1.953,0,0,0,200,230.076v11.718a1.953,1.953,0,0,0,1.953,1.953h3.906a1.953,1.953,0,0,0,1.953-1.953V230.076A1.953,1.953,0,0,0,205.859,228.123ZM229.3,208.592h-3.906a1.953,1.953,0,0,0-1.953,1.953v11.718a1.953,1.953,0,0,0,1.953,1.953H229.3a1.953,1.953,0,0,0,1.953-1.953V210.545A1.953,1.953,0,0,0,229.3,208.592Z" transform="translate(-121.875 -91.408)"/>
          <path id="Path_179" data-name="Path 179" class="cls-12" d="M268.594,151.953v11.718a1.953,1.953,0,0,1-1.953,1.953h-3.906a1.953,1.953,0,0,1-1.953-1.953V151.953A1.953,1.953,0,0,1,262.734,150h3.906A1.953,1.953,0,0,1,268.594,151.953Zm-17.578,17.578h-3.906a1.953,1.953,0,0,0-1.953,1.953V183.2a1.953,1.953,0,0,0,1.953,1.953h3.906a1.953,1.953,0,0,0,1.953-1.953V171.484A1.953,1.953,0,0,0,251.016,169.531Zm-27.344,19.531h-3.906a1.953,1.953,0,0,0-1.953,1.953v11.718a1.953,1.953,0,0,0,1.953,1.953h3.906a1.953,1.953,0,0,0,1.953-1.953V191.015A1.953,1.953,0,0,0,223.672,189.062Zm-7.812,39.062h-3.906A1.953,1.953,0,0,0,210,230.076v11.718a1.953,1.953,0,0,0,1.953,1.953h3.906a1.953,1.953,0,0,0,1.953-1.953V230.076A1.953,1.953,0,0,0,215.859,228.123ZM239.3,208.592h-3.906a1.953,1.953,0,0,0-1.953,1.953v11.718a1.953,1.953,0,0,0,1.953,1.953H239.3a1.953,1.953,0,0,0,1.953-1.953V210.545A1.953,1.953,0,0,0,239.3,208.592Z" transform="translate(-127.969 -91.408)"/>
          <path id="Path_180" data-name="Path 180" class="cls-13" d="M93.156,234.2v3.906a1.953,1.953,0,0,1-1.953,1.953H59.953A1.953,1.953,0,0,1,58,238.108V234.2a1.953,1.953,0,0,1,1.953-1.953H91.2A1.953,1.953,0,0,1,93.156,234.2ZM91.2,263.5H59.953A1.953,1.953,0,0,0,58,265.452v3.906a1.953,1.953,0,0,0,1.953,1.953H91.2a1.953,1.953,0,0,0,1.953-1.953v-3.906A1.953,1.953,0,0,0,91.2,263.5Zm-31.25-39.062H87.3a1.953,1.953,0,0,0,1.953-1.953v-3.906a1.953,1.953,0,0,0-1.953-1.953H59.953A1.953,1.953,0,0,0,58,218.578v3.906A1.953,1.953,0,0,0,59.953,224.437Zm0-15.625H83.391a1.953,1.953,0,0,0,1.953-1.953v-3.906A1.953,1.953,0,0,0,83.391,201H59.953A1.953,1.953,0,0,0,58,202.953v3.906A1.953,1.953,0,0,0,59.953,208.812Zm0,46.874H83.391a1.953,1.953,0,0,0,1.953-1.953v-3.906a1.953,1.953,0,0,0-1.953-1.953H59.953A1.953,1.953,0,0,0,58,249.827v3.906A1.953,1.953,0,0,0,59.953,255.686Z" transform="translate(-35.344 -122.486)"/>
          <path id="Path_181" data-name="Path 181" class="cls-14" d="M360.352,196.737v34.212a5.86,5.86,0,0,1-4.176,5.611v31.094h-33.4v-28.49a2.907,2.907,0,0,0-2.907-2.907v-.006a5.857,5.857,0,0,1-5.4-3.791l-7.641-20.3a5.859,5.859,0,0,1,3.419-7.548l.756-.285a5.86,5.86,0,0,1,7.548,3.419l2.709,7.2a.781.781,0,0,0,1.513-.275V175.859A5.859,5.859,0,0,1,328.631,170h.808a5.859,5.859,0,0,1,5.859,5.859v15.018h19.194A5.859,5.859,0,0,1,360.352,196.737Z" transform="translate(-186.743 -103.595)"/>
          <path id="Path_182" data-name="Path 182" class="cls-15" d="M322.591,215.446H322.1a.761.761,0,0,0,.668-.771V175.859A5.859,5.859,0,0,1,328.631,170h.262a5.866,5.866,0,0,0-.086.987v38.243a6.217,6.217,0,0,1-6.1,6.215Zm6.258,48.3v-28.49a2.907,2.907,0,0,0-2.907-2.907v-.006a5.857,5.857,0,0,1-5.4-3.791l-7.641-20.3a5.83,5.83,0,0,1,.073-4.3,5.837,5.837,0,0,0-1.974.37l-.756.285a5.86,5.86,0,0,0-3.42,7.548l7.641,20.3a5.858,5.858,0,0,0,5.4,3.791v.006a2.907,2.907,0,0,1,2.907,2.907v28.489h33.4v-3.906Z" transform="translate(-186.743 -103.595)"/>
          <path id="Path_183" data-name="Path 183" class="cls-16" d="M330.025,421.211a3.933,3.933,0,0,1-.025-.431V373.906A3.906,3.906,0,0,1,333.906,370h39.062a3.906,3.906,0,0,1,3.906,3.906v16.808A100.067,100.067,0,0,1,330.025,421.211Z" transform="translate(-201.094 -225.472)"/>
          <path id="Path_184" data-name="Path 184" class="cls-17" d="M350,418.51v-44.6A3.906,3.906,0,0,1,353.906,370h31.25a3.906,3.906,0,0,1,3.906,3.906v16.808A100.223,100.223,0,0,1,350,418.51Z" transform="translate(-213.281 -225.472)"/>
          <path id="Path_185" data-name="Path 185" class="cls-18" d="M347.813,393.906A3.906,3.906,0,1,1,343.906,390,3.906,3.906,0,0,1,347.813,393.906Z" transform="translate(-207.188 -237.66)"/>
        </g>
      </g>
    </g>
  </g>
</svg>
