<svg xmlns="http://www.w3.org/2000/svg" xmlns:xlink="http://www.w3.org/1999/xlink" width="106.59" height="107.59" viewBox="0 0 106.59 107.59">
  <defs>
    <linearGradient id="linear-gradient" y1="0.5" x2="1" y2="0.5" gradientUnits="objectBoundingBox">
      <stop offset="0" stop-color="#9debef"/>
      <stop offset="0.815" stop-color="#19c4ff"/>
    </linearGradient>
    <clipPath id="clip-path">
      <circle id="Ellipse_116" data-name="Ellipse 116" cx="53.295" cy="53.295" r="53.295" transform="translate(1002 102)" fill="url(#linear-gradient)"/>
    </clipPath>
    <linearGradient id="linear-gradient-2" y1="0.5" x2="1" y2="0.5" gradientUnits="objectBoundingBox">
      <stop offset="0" stop-color="#feb422"/>
      <stop offset="1" stop-color="#f95830"/>
    </linearGradient>
  </defs>
  <g id="ES_QuickGuide" transform="translate(-1002 -105)">
    <circle id="Ellipse_109" data-name="Ellipse 109" cx="53.295" cy="53.295" r="53.295" transform="translate(1002 105)" fill="#e6e6e6"/>
    <g id="Mask_Group_1" data-name="Mask Group 1" transform="translate(0 4)" clip-path="url(#clip-path)">
      <g id="Group_1625" data-name="Group 1625" transform="translate(343.146 -499.07)">
        <path id="Path_3006" data-name="Path 3006" d="M676.2,714.07V636.725a6.811,6.811,0,0,1,6.811-6.811H723.87l24.971,24.971V714.07" transform="translate(0 0)" fill="#fff"/>
        <path id="Path_3007" data-name="Path 3007" d="M724.322,651.789l22.7,22.4V654.059l-2.27-2.27Z" transform="translate(1.817 0.826)" fill="#f3f3f3"/>
        <path id="Path_3008" data-name="Path 3008" d="M722.135,629.914v18.161a6.809,6.809,0,0,0,6.81,6.81h18.161Z" transform="translate(1.734 0)" fill="url(#linear-gradient-2)"/>
        <g id="Group_1624" data-name="Group 1624" transform="translate(686.56 657.544)">
          <line id="Line_114" data-name="Line 114" x2="50.331" transform="translate(0 12.972)" fill="none" stroke="#b0d9ef" stroke-width="2"/>
          <line id="Line_115" data-name="Line 115" x2="50.331" transform="translate(0 18.828)" fill="none" stroke="#b0d9ef" stroke-width="2"/>
          <line id="Line_116" data-name="Line 116" x2="50.331" transform="translate(0 24.683)" fill="none" stroke="#b0d9ef" stroke-width="2"/>
          <line id="Line_117" data-name="Line 117" x2="50.331" transform="translate(0 30.54)" fill="none" stroke="#b0d9ef" stroke-width="2"/>
        </g>
      </g>
    </g>
    <g id="Group_1610" data-name="Group 1610" transform="translate(1030 144.054)">
      <path id="Path_2982" data-name="Path 2982" d="M240.7,545.085l-.316,1.3c-.951.373-1.706.655-2.272.851a5.916,5.916,0,0,1-1.968.293,3.935,3.935,0,0,1-2.681-.838,2.72,2.72,0,0,1-.952-2.133,7.829,7.829,0,0,1,.068-1.031,11.9,11.9,0,0,1,.233-1.186l1.188-4.2c.105-.4.192-.782.264-1.142a5.059,5.059,0,0,0,.106-.981,1.545,1.545,0,0,0-.327-1.129,1.914,1.914,0,0,0-1.269-.313,3.473,3.473,0,0,0-.946.142c-.322.1-.6.194-.826.279l.312-1.3c.78-.319,1.522-.59,2.234-.812a6.619,6.619,0,0,1,2.015-.338,3.816,3.816,0,0,1,2.639.828,2.731,2.731,0,0,1,.928,2.147c0,.179-.019.5-.063.964a6.5,6.5,0,0,1-.24,1.265l-1.179,4.178c-.094.34-.183.724-.26,1.153a6.108,6.108,0,0,0-.116.978,1.394,1.394,0,0,0,.375,1.134,2.076,2.076,0,0,0,1.289.3,3.813,3.813,0,0,0,.978-.15A5.271,5.271,0,0,0,240.7,545.085Zm.3-17.544a2.441,2.441,0,0,1-.827,1.86,2.8,2.8,0,0,1-1.989.769,2.832,2.832,0,0,1-2-.769,2.437,2.437,0,0,1-.833-1.86,2.471,2.471,0,0,1,.833-1.872,2.843,2.843,0,0,1,2-.773,2.807,2.807,0,0,1,1.989.773A2.476,2.476,0,0,1,241,527.541Z" transform="translate(-231.005 -524.895)" fill="#b0d9ef"/>
    </g>
  </g>
</svg>
