<svg id="noGroups" xmlns="http://www.w3.org/2000/svg" xmlns:xlink="http://www.w3.org/1999/xlink" width="238.849" height="220" viewBox="0 0 238.849 220">
  <defs>
    <linearGradient id="linear-gradient" y1="0.5" x2="1" y2="0.5" gradientUnits="objectBoundingBox">
      <stop offset="0.185" stop-color="#b5da60"/>
      <stop offset="1" stop-color="#9debef"/>
    </linearGradient>
    <linearGradient id="linear-gradient-2" x1="-0.002" y1="0.5" x2="0.999" y2="0.5" gradientUnits="objectBoundingBox">
      <stop offset="0" stop-color="#f3f3f3"/>
      <stop offset="1" stop-color="#d9e1e4"/>
    </linearGradient>
    <linearGradient id="linear-gradient-3" x1="0" y1="0.5" x2="1" y2="0.5" xlink:href="#linear-gradient-2"/>
    <clipPath id="clip-path">
      <circle id="Ellipse_78" data-name="Ellipse 78" cx="47.122" cy="47.122" r="47.122"/>
    </clipPath>
    <linearGradient id="linear-gradient-4" x1="0.002" y1="0.499" x2="1" y2="0.499" gradientUnits="objectBoundingBox">
      <stop offset="0" stop-color="#b550ea"/>
      <stop offset="1" stop-color="#e6737c"/>
    </linearGradient>
    <linearGradient id="linear-gradient-5" y1="0.5" x2="1.001" y2="0.5" gradientUnits="objectBoundingBox">
      <stop offset="0" stop-color="#feb422"/>
      <stop offset="1" stop-color="#f95830"/>
    </linearGradient>
    <linearGradient id="linear-gradient-6" x1="0" y1="0.5" x2="1.001" y2="0.5" xlink:href="#linear-gradient-5"/>
    <linearGradient id="linear-gradient-7" x1="0.001" y1="0.5" x2="1" y2="0.5" gradientUnits="objectBoundingBox">
      <stop offset="0" stop-color="#ca88f6"/>
      <stop offset="1" stop-color="#f95830"/>
    </linearGradient>
    <linearGradient id="linear-gradient-8" x1="0.001" y1="0.498" x2="0.999" y2="0.498" gradientUnits="objectBoundingBox">
      <stop offset="0" stop-color="#ffdf7d"/>
      <stop offset="1" stop-color="#feb422"/>
    </linearGradient>
    <linearGradient id="linear-gradient-9" x1="-0.006" y1="0.499" x2="1" y2="0.499" xlink:href="#linear-gradient-8"/>
    <linearGradient id="linear-gradient-10" x1="0.002" y1="0.5" x2="1" y2="0.5" xlink:href="#linear-gradient-8"/>
    <linearGradient id="linear-gradient-11" x1="0.002" y1="0.5" x2="1.002" y2="0.5" xlink:href="#linear-gradient-4"/>
    <clipPath id="clip-path-2">
      <circle id="Ellipse_81" data-name="Ellipse 81" cx="47.122" cy="47.122" r="47.122" transform="translate(0)"/>
    </clipPath>
    <linearGradient id="linear-gradient-12" x1="0" y1="0.5" x2="1" y2="0.5" xlink:href="#linear-gradient-2"/>
    <linearGradient id="linear-gradient-13" y1="0.501" x2="1.001" y2="0.501" gradientUnits="objectBoundingBox">
      <stop offset="0" stop-color="#fbd7a6"/>
      <stop offset="1" stop-color="#e6737c"/>
    </linearGradient>
    <linearGradient id="linear-gradient-14" y1="0.5" x2="0.999" y2="0.5" gradientUnits="objectBoundingBox">
      <stop offset="0" stop-color="#f2cbe0"/>
      <stop offset="1" stop-color="#ca88f6"/>
    </linearGradient>
    <linearGradient id="linear-gradient-15" x1="0" y1="0.498" x2="0.998" y2="0.498" xlink:href="#linear-gradient-13"/>
    <linearGradient id="linear-gradient-16" x1="-0.004" y1="0.5" x2="1.001" y2="0.5" xlink:href="#linear-gradient-8"/>
    <linearGradient id="linear-gradient-17" x1="-0.001" y1="0.501" x2="0.999" y2="0.501" gradientUnits="objectBoundingBox">
      <stop offset="0" stop-color="#f95830"/>
      <stop offset="1" stop-color="#aa64b9"/>
    </linearGradient>
    <linearGradient id="linear-gradient-18" x1="0.001" y1="0.501" x2="1.001" y2="0.501" xlink:href="#linear-gradient-17"/>
    <linearGradient id="linear-gradient-19" x1="0" y1="0.5" x2="1" y2="0.5" xlink:href="#linear-gradient-8"/>
    <linearGradient id="linear-gradient-20" x1="0.002" y1="0.501" x2="1.002" y2="0.501" xlink:href="#linear-gradient-17"/>
    <linearGradient id="linear-gradient-21" x1="-0.001" y1="0.5" x2="1" y2="0.5" xlink:href="#linear-gradient-8"/>
    <linearGradient id="linear-gradient-22" x1="-0.001" y1="0.5" x2="1" y2="0.5" xlink:href="#linear-gradient-17"/>
    <linearGradient id="linear-gradient-23" x1="0" y1="0.5" x2="1" y2="0.5" xlink:href="#linear-gradient-2"/>
    <linearGradient id="linear-gradient-24" x1="0.002" y1="0.5" x2="1" y2="0.5" gradientUnits="objectBoundingBox">
      <stop offset="0" stop-color="#2642dc"/>
      <stop offset="1" stop-color="#39cbff"/>
    </linearGradient>
    <linearGradient id="linear-gradient-25" x1="0.004" y1="0.5" x2="1.002" y2="0.5" xlink:href="#linear-gradient-24"/>
    <linearGradient id="linear-gradient-26" x1="0.002" y1="0.501" x2="1.001" y2="0.501" xlink:href="#linear-gradient-8"/>
    <linearGradient id="linear-gradient-27" x1="-0.006" y1="0.5" x2="0.996" y2="0.5" xlink:href="#linear-gradient-8"/>
    <linearGradient id="linear-gradient-28" x1="0.001" y1="0.501" x2="1.002" y2="0.501" gradientUnits="objectBoundingBox">
      <stop offset="0" stop-color="#007acd"/>
      <stop offset="1" stop-color="#39cbff"/>
    </linearGradient>
    <linearGradient id="linear-gradient-29" x1="0.003" y1="0.502" x2="0.997" y2="0.502" xlink:href="#linear-gradient-8"/>
    <linearGradient id="linear-gradient-30" x1="0.001" y1="0.501" x2="1.001" y2="0.501" xlink:href="#linear-gradient-2"/>
    <linearGradient id="linear-gradient-31" x1="0" y1="0.499" x2="1" y2="0.499" xlink:href="#linear-gradient-2"/>
    <linearGradient id="linear-gradient-32" x1="0.001" y1="0.501" x2="1.001" y2="0.501" gradientUnits="objectBoundingBox">
      <stop offset="0" stop-color="#70d1d6"/>
      <stop offset="1" stop-color="#ca88f6"/>
    </linearGradient>
    <linearGradient id="linear-gradient-33" x1="-0.004" y1="0.5" x2="1" y2="0.5" xlink:href="#linear-gradient-13"/>
    <linearGradient id="linear-gradient-34" x1="-0.002" y1="0.501" x2="0.999" y2="0.501" gradientUnits="objectBoundingBox">
      <stop offset="0" stop-color="#17abfe"/>
      <stop offset="1" stop-color="#ca88f6"/>
    </linearGradient>
    <linearGradient id="linear-gradient-35" x1="-0.003" y1="0.5" x2="0.997" y2="0.5" gradientUnits="objectBoundingBox">
      <stop offset="0" stop-color="#f95830"/>
      <stop offset="1" stop-color="#e04037"/>
    </linearGradient>
    <linearGradient id="linear-gradient-36" x1="-0.001" y1="0.5" x2="0.999" y2="0.5" xlink:href="#linear-gradient-35"/>
    <linearGradient id="linear-gradient-37" x1="0.002" y1="0.5" x2="0.999" y2="0.5" gradientUnits="objectBoundingBox">
      <stop offset="0" stop-color="#4db544"/>
      <stop offset="0.815" stop-color="#17d0b4"/>
    </linearGradient>
  </defs>
  <path id="Path_1626" data-name="Path 1626" d="M176.237,212.633c-6.025,6.025-17.613,9.115-25.878,6.952L67.471,197.337c-8.188-2.163-16.686-10.738-18.926-18.926L26.3,95.446c-2.163-8.188.927-19.853,6.952-25.878L93.967,8.849C99.993,2.824,111.58-.266,119.846,1.9l82.966,22.248C211,26.308,219.5,34.882,221.737,43.071l22.248,82.966c2.163,8.188-.927,19.853-6.952,25.878Z" transform="translate(-5.826 -0.275)" fill="url(#linear-gradient)"/>
  <g id="Group_1619" data-name="Group 1619" transform="translate(160.601 91.695)">
    <path id="Path_1627" data-name="Path 1627" d="M214.93,143.111l-7.03-23.947,1.468-.464,7.03,23.947Z" transform="translate(-207.9 -118.7)" fill="url(#linear-gradient-2)"/>
  </g>
  <g id="Group_1624" data-name="Group 1624" transform="translate(0 77.867)">
    <g id="Group_1623" data-name="Group 1623">
      <circle id="Ellipse_76" data-name="Ellipse 76" cx="47.122" cy="47.122" r="47.122" fill="#fff"/>
      <circle id="Ellipse_77" data-name="Ellipse 77" cx="40.17" cy="40.17" r="40.17" transform="translate(6.952 6.952)" fill="url(#linear-gradient-3)"/>
      <g id="Group_1622" data-name="Group 1622">
        <g id="Group_1621" data-name="Group 1621" clip-path="url(#clip-path)">
          <path id="Path_1628" data-name="Path 1628" d="M71.294,170.025a13.781,13.781,0,0,1-13.75,13.75H51.75A13.781,13.781,0,0,1,38,170.025V145.15A13.781,13.781,0,0,1,51.75,131.4h5.794a13.781,13.781,0,0,1,13.75,13.75Z" transform="translate(-8.645 -107.762)" fill="url(#linear-gradient-4)"/>
          <g id="Group_1620" data-name="Group 1620" transform="translate(14.832 64.889)">
            <path id="Path_1629" data-name="Path 1629" d="M60.9,184.8v19.235a11.292,11.292,0,0,1,11.278,11.278v26.033H91.413V215.313A30.528,30.528,0,0,0,60.9,184.8Z" transform="translate(-28.687 -184.8)" fill="url(#linear-gradient-5)"/>
            <path id="Path_1630" data-name="Path 1630" d="M19.2,215.313v26.033H38.435V215.313a11.292,11.292,0,0,1,11.278-11.278V184.8A30.528,30.528,0,0,0,19.2,215.313Z" transform="translate(-19.2 -184.8)" fill="url(#linear-gradient-6)"/>
          </g>
          <path id="Path_1631" data-name="Path 1631" d="M72.856,242.279V208.29a19.428,19.428,0,0,0-38.856,0v33.99" transform="translate(-7.735 -120.844)" fill="url(#linear-gradient-7)"/>
          <path id="Path_1632" data-name="Path 1632" d="M74.86,162.371a5.868,5.868,0,0,1-5.871,5.871H37.471a5.868,5.868,0,0,1-5.871-5.871h0a5.868,5.868,0,0,1,5.871-5.871h31.44a5.935,5.935,0,0,1,5.948,5.871Z" transform="translate(-7.189 -113.472)" fill="url(#linear-gradient-8)"/>
          <path id="Path_1633" data-name="Path 1633" d="M57.3,186.536a6.116,6.116,0,0,1-6.1-6.1V147.6a6.116,6.116,0,0,1,6.1-6.1h0a6.116,6.116,0,0,1,6.1,6.1v32.831a6.116,6.116,0,0,1-6.1,6.1Z" transform="translate(-11.648 -110.06)" fill="url(#linear-gradient-9)"/>
          <path id="Path_1634" data-name="Path 1634" d="M71.294,135.1v24.874a13.781,13.781,0,0,1-13.75,13.75H51.75A13.781,13.781,0,0,1,38,159.974V135.1" transform="translate(-8.645 -108.604)" fill="url(#linear-gradient-10)"/>
          <path id="Path_1635" data-name="Path 1635" d="M57.544,117.3H51.75A13.781,13.781,0,0,0,38,131.05V147.5c6.875-.618,13.364-7.03,16.609-16.145,3.244,9.115,9.733,15.527,16.609,16.145V131.05A13.666,13.666,0,0,0,57.544,117.3Z" transform="translate(-8.645 -104.554)" fill="url(#linear-gradient-11)"/>
          <path id="Path_1636" data-name="Path 1636" d="M45.1,160.349c0-1.39,1.622-2.549,3.631-2.549s3.631,1.159,3.631,2.549" transform="translate(-10.261 -113.768)" fill="none" stroke="#e6737c" stroke-width="3"/>
          <path id="Path_1637" data-name="Path 1637" d="M62.7,160.349c0-1.39,1.622-2.549,3.631-2.549s3.631,1.159,3.631,2.549" transform="translate(-14.265 -113.768)" fill="none" stroke="#e6737c" stroke-width="3"/>
          <path id="Path_1638" data-name="Path 1638" d="M52,167.8v2.549a3.627,3.627,0,0,0,3.631,3.631H58.18a3.627,3.627,0,0,0,3.631-3.631V167.8Z" transform="translate(-11.83 -116.043)" fill="none" stroke="#e6737c" stroke-width="3"/>
        </g>
      </g>
    </g>
  </g>
  <g id="Group_1629" data-name="Group 1629" transform="translate(100.347)">
    <g id="Group_1628" data-name="Group 1628">
      <g id="Group_1627" data-name="Group 1627">
        <circle id="Ellipse_79" data-name="Ellipse 79" cx="47.122" cy="47.122" r="47.122" fill="#fff"/>
        <g id="Group_1625" data-name="Group 1625" clip-path="url(#clip-path-2)">
          <circle id="Ellipse_80" data-name="Ellipse 80" cx="40.17" cy="40.17" r="40.17" transform="translate(6.952 6.952)" fill="url(#linear-gradient-12)"/>
        </g>
        <g id="Group_1626" data-name="Group 1626" clip-path="url(#clip-path)">
          <path id="Path_1639" data-name="Path 1639" d="M156.3,134.582V97.5c0-3.322,3.167-6.1,7.03-6.1h38.856c3.862,0,7.03,2.7,7.03,6.1v37.08" transform="translate(-135.906 -20.794)" fill="url(#linear-gradient-13)"/>
          <path id="Path_1640" data-name="Path 1640" d="M169.3,135.606V101.23c0-2.935,1.931-5.33,4.4-5.33h24.1c2.395,0,4.4,2.395,4.4,5.33v34.376" transform="translate(-138.864 -21.818)" fill="url(#linear-gradient-14)"/>
          <path id="Path_1641" data-name="Path 1641" d="M187.665,104.246a9.989,9.989,0,0,0,9.965-9.965V91.5H177.7v2.781A9.989,9.989,0,0,0,187.665,104.246Z" transform="translate(-140.775 -20.817)" fill="url(#linear-gradient-15)"/>
          <path id="Path_1642" data-name="Path 1642" d="M194.36,88.479a5.341,5.341,0,0,1-5.33,5.33h0a5.341,5.341,0,0,1-5.33-5.33V71.33A5.341,5.341,0,0,1,189.03,66h0a5.341,5.341,0,0,1,5.33,5.33Z" transform="translate(-142.14 -15.016)" fill="url(#linear-gradient-16)"/>
          <path id="Path_1643" data-name="Path 1643" d="M178.738,35.71a12.68,12.68,0,1,1-25.338,0,12.68,12.68,0,1,1,25.338,0Z" transform="translate(-135.246 -5.119)" fill="url(#linear-gradient-17)"/>
          <path id="Path_1644" data-name="Path 1644" d="M171.522,55.72a8.117,8.117,0,1,1-8.111-8.42A8.279,8.279,0,0,1,171.522,55.72Z" transform="translate(-135.679 -10.761)" fill="url(#linear-gradient-18)"/>
          <path id="Path_1645" data-name="Path 1645" d="M173.522,47.22a8.117,8.117,0,1,1-8.111-8.42A8.279,8.279,0,0,1,173.522,47.22Z" transform="translate(-136.134 -8.827)" fill="url(#linear-gradient-19)"/>
          <path id="Path_1646" data-name="Path 1646" d="M214.822,55.72a8.117,8.117,0,1,1-8.111-8.42A8.279,8.279,0,0,1,214.822,55.72Z" transform="translate(-145.53 -10.761)" fill="url(#linear-gradient-20)"/>
          <path id="Path_1647" data-name="Path 1647" d="M199.753,50.3a18.1,18.1,0,0,1-18.076,18.076h0A18.1,18.1,0,0,1,163.6,50.3V35.776A18.1,18.1,0,0,1,181.676,17.7h0a18.1,18.1,0,0,1,18.076,18.076Z" transform="translate(-137.567 -4.027)" fill="url(#linear-gradient-21)"/>
          <path id="Path_1648" data-name="Path 1648" d="M198.886,22.038l12.9,12.9-2.317,2.317a18.277,18.277,0,0,1-25.8,0L167.6,21.189A22.771,22.771,0,0,1,198.886,22.038Z" transform="translate(-138.477 -3.499)" fill="url(#linear-gradient-22)"/>
          <path id="Path_1649" data-name="Path 1649" d="M170.9,50a4.4,4.4,0,0,1,8.806,0" transform="translate(-139.228 -10.374)" fill="none" stroke="#e6737c" stroke-width="3"/>
          <line id="Line_139" data-name="Line 139" x2="6.875" transform="translate(40.17 52.375)" fill="none" stroke="#e6737c" stroke-width="3"/>
        </g>
      </g>
    </g>
  </g>
  <g id="Group_1633" data-name="Group 1633" transform="translate(136.499 112.629)">
    <g id="Group_1632" data-name="Group 1632">
      <circle id="Ellipse_83" data-name="Ellipse 83" cx="47.122" cy="47.122" r="47.122" fill="#fff"/>
      <circle id="Ellipse_84" data-name="Ellipse 84" cx="40.17" cy="40.17" r="40.17" transform="translate(6.952 6.952)" fill="url(#linear-gradient-23)"/>
      <g id="Group_1631" data-name="Group 1631">
        <g id="Group_1630" data-name="Group 1630" clip-path="url(#clip-path)">
          <path id="Path_1650" data-name="Path 1650" d="M259.891,274.749V240.141c0-4.017-4.171-7.261-9.347-7.261H237.257v-16.3c0-3.4-3.167-6.18-7.03-6.18h-.464c-3.862,0-7.03,2.781-7.03,6.18v16.3H209.447c-5.176,0-9.347,3.244-9.347,7.261v34.608" transform="translate(-182.024 -160.497)" fill="url(#linear-gradient-24)"/>
          <path id="Path_1651" data-name="Path 1651" d="M244.958,240.8a1.55,1.55,0,0,1-1.545,1.545H229.045A1.55,1.55,0,0,1,227.5,240.8v-6.952a1.55,1.55,0,0,1,1.545-1.545h14.368a1.55,1.55,0,0,1,1.545,1.545Z" transform="translate(-188.257 -165.48)" fill="url(#linear-gradient-25)"/>
          <path id="Path_1652" data-name="Path 1652" d="M251.416,201.05a18.3,18.3,0,0,1-18.308,18.308h0A18.3,18.3,0,0,1,214.8,201.05V191.008A18.3,18.3,0,0,1,233.108,172.7h0a18.3,18.3,0,0,1,18.308,18.308Z" transform="translate(-185.368 -151.92)" fill="url(#linear-gradient-26)"/>
          <path id="Path_1653" data-name="Path 1653" d="M216.4,202.4c-1.931.232-5.1,1.854-5.1,3.785v4.635c0,2.008,3.167,3.631,5.1,3.785Z" transform="translate(-184.572 -158.677)" fill="url(#linear-gradient-27)"/>
          <line id="Line_140" data-name="Line 140" x2="3.322" transform="translate(38.393 44.264)" fill="none" stroke="#e6737c" stroke-width="3"/>
          <line id="Line_141" data-name="Line 141" x2="3.322" transform="translate(52.22 44.264)" fill="none" stroke="#e6737c" stroke-width="3"/>
          <path id="Path_1654" data-name="Path 1654" d="M233.5,221.8a4.319,4.319,0,0,0,7.879,0" transform="translate(-189.622 -163.091)" fill="none" stroke="#e6737c" stroke-width="3"/>
          <path id="Path_1655" data-name="Path 1655" d="M249.756,175.512h-2.163a4.125,4.125,0,0,0,.464-3.631c-1.081-2.781-5.716-3.553-10.274-1.777-.541.232-1,.464-1.468.7a4.039,4.039,0,0,0-.077-2.858c-1.313-3.322-6.721-4.249-12.205-2.086-5.407,2.086-8.806,6.412-7.648,9.656h-1.622a3.874,3.874,0,0,0-3.862,3.862v16.068l.232.464h5.176v-14.6a78.7,78.7,0,0,0,15.913,1.622,73.015,73.015,0,0,0,15.913-1.622v14.6h5.176l.232-.464V179.375A3.76,3.76,0,0,0,249.756,175.512Z" transform="translate(-184.481 -150.097)" fill="url(#linear-gradient-28)"/>
          <path id="Path_1656" data-name="Path 1656" d="M235,197.9v11.51a1.3,1.3,0,0,0,1.313,1.313h2.472a1.3,1.3,0,0,0,1.313-1.313v-.7" transform="translate(-189.964 -157.653)" fill="none" stroke="#e6737c" stroke-width="3"/>
          <line id="Line_142" data-name="Line 142" y1="5.871" transform="translate(44.804 70.451)" fill="#fff" stroke="#17abfe" stroke-width="3"/>
          <path id="Path_1657" data-name="Path 1657" d="M259.2,205.931a3.627,3.627,0,0,1,3.631-3.631h.309a3.626,3.626,0,0,1,3.631,3.631v4.4a3.626,3.626,0,0,1-3.631,3.631h-.309a3.561,3.561,0,0,1-3.322-2.163" transform="translate(-195.469 -158.654)" fill="url(#linear-gradient-29)"/>
        </g>
      </g>
    </g>
  </g>
  <g id="Group_1634" data-name="Group 1634" transform="translate(82.425 71.996)">
    <path id="Path_1658" data-name="Path 1658" d="M107.7,117.147l-1-1.159L134.278,93.2l.927,1.236Z" transform="translate(-106.7 -93.2)" fill="url(#linear-gradient-30)"/>
  </g>
  <g id="Group_1635" data-name="Group 1635" transform="translate(90.459 140.902)">
    <path id="Path_1659" data-name="Path 1659" d="M163.449,196.228,117.1,183.868l.386-1.468,46.349,12.283Z" transform="translate(-117.1 -182.4)" fill="url(#linear-gradient-31)"/>
  </g>
  <g id="Group_1641" data-name="Group 1641" transform="translate(73.696 30.436)">
    <g id="Group_1636" data-name="Group 1636">
      <circle id="Ellipse_86" data-name="Ellipse 86" cx="19.699" cy="19.699" r="19.699" fill="url(#linear-gradient-32)"/>
    </g>
    <g id="Group_1640" data-name="Group 1640" transform="translate(11.665 7.184)">
      <g id="Group_1637" data-name="Group 1637" transform="translate(0 8.575)">
        <path id="Path_1660" data-name="Path 1660" d="M118.534,70.306a8.028,8.028,0,0,1-8.034-8.034V60.8a1,1,0,0,1,2.008,0v1.468a6.1,6.1,0,1,0,12.205,0V60.8a1,1,0,1,1,2.008,0v1.468A8.161,8.161,0,0,1,118.534,70.306Z" transform="translate(-110.5 -59.8)" fill="#fff"/>
      </g>
      <path id="Path_1661" data-name="Path 1661" d="M119.671,63.918a4.154,4.154,0,0,1-4.171-4.171V52.871a4.171,4.171,0,0,1,8.343,0v6.875A4.154,4.154,0,0,1,119.671,63.918Z" transform="translate(-111.638 -48.7)" fill="#fff"/>
      <g id="Group_1638" data-name="Group 1638" transform="translate(7.03 17.304)">
        <path id="Path_1662" data-name="Path 1662" d="M120.6,77.28a1.023,1.023,0,0,1-1-1V72.1a1,1,0,1,1,2.008,0v4.171A.974.974,0,0,1,120.6,77.28Z" transform="translate(-119.6 -71.1)" fill="#fff"/>
      </g>
      <g id="Group_1639" data-name="Group 1639" transform="translate(2.395 21.475)">
        <path id="Path_1663" data-name="Path 1663" d="M123.874,78.508H114.6a1,1,0,1,1,0-2.008h9.27a1.023,1.023,0,0,1,1,1A.974.974,0,0,1,123.874,78.508Z" transform="translate(-113.6 -76.5)" fill="#fff"/>
      </g>
    </g>
  </g>
  <g id="Group_1644" data-name="Group 1644" transform="translate(181.844 62.417)">
    <g id="Group_1642" data-name="Group 1642">
      <path id="Path_1664" data-name="Path 1664" d="M249.3,87.752c0,3.862-6.952,14.446-6.952,14.446S235.4,91.615,235.4,87.752a6.952,6.952,0,1,1,13.9,0Z" transform="translate(-235.4 -80.8)" fill="url(#linear-gradient-33)"/>
    </g>
    <g id="Group_1643" data-name="Group 1643" transform="translate(4.789 5.253)">
      <path id="Path_1665" data-name="Path 1665" d="M245.771,89.686a2.086,2.086,0,1,1-2.086-2.086A2.077,2.077,0,0,1,245.771,89.686Z" transform="translate(-241.6 -87.6)" fill="#fff"/>
    </g>
  </g>
  <g id="Group_1647" data-name="Group 1647" transform="translate(211.972 113.835)">
    <path id="Path_1666" data-name="Path 1666" d="M294.253,156.507c2.935,1.7,2.935,4.48,0,6.18l-14.523,8.343c-2.935,1.7-5.33.309-5.33-3.09V151.176c0-3.4,2.395-4.789,5.33-3.09Z" transform="translate(-274.4 -147.361)" fill="url(#linear-gradient-34)"/>
    <g id="Group_1646" data-name="Group 1646" transform="translate(4.166 4.433)">
      <path id="Path_1667" data-name="Path 1667" d="M285.978,165.993c.464,1.236-.618,2.7-2.317,3.244-1.7.618-3.4.077-3.785-1.159s.618-2.7,2.317-3.244C283.815,164.294,285.515,164.757,285.978,165.993Z" transform="translate(-279.793 -155.719)" fill="#fff"/>
      <g id="Group_1645" data-name="Group 1645" transform="translate(3.945)">
        <path id="Path_1668" data-name="Path 1668" d="M287.217,163.838H284.9V153.1l5.176,2.858-1.159,2.008-1.7-.927Z" transform="translate(-284.9 -153.1)" fill="#fff"/>
      </g>
    </g>
  </g>
  <g id="Group_1648" data-name="Group 1648" transform="translate(77.558 105.059)">
    <path id="Path_1669" data-name="Path 1669" d="M131.4,145.721v6.643l7.725,6.721V139Z" transform="translate(-107.453 -136.683)" fill="url(#linear-gradient-35)"/>
    <path id="Path_1670" data-name="Path 1670" d="M125.12,158.4a2.276,2.276,0,0,1-2.317,2.317H102.717A2.276,2.276,0,0,1,100.4,158.4V138.317A2.276,2.276,0,0,1,102.717,136H122.8a2.276,2.276,0,0,1,2.317,2.317Z" transform="translate(-100.4 -136)" fill="url(#linear-gradient-36)"/>
    <path id="Path_1671" data-name="Path 1671" d="M114.4,147v7.725l5.407-3.862Z" transform="translate(-103.585 -138.503)" fill="#fff"/>
  </g>
  <g id="Group_1650" data-name="Group 1650" transform="translate(118.809 157.82)">
    <g id="Group_1649" data-name="Group 1649">
      <path id="Path_1672" data-name="Path 1672" d="M185.781,204.3a2.163,2.163,0,0,1,2.24,2.086V218.9l5.948,5.871h-6.025v4.558a2.163,2.163,0,0,1-2.24,2.086H156.04a2.163,2.163,0,0,1-2.24-2.086V206.386a2.163,2.163,0,0,1,2.24-2.086Z" transform="translate(-153.8 -204.3)" fill="url(#linear-gradient-37)"/>
    </g>
    <line id="Line_143" data-name="Line 143" x2="16.995" transform="translate(8.188 8.266)" fill="none" stroke="#fff" stroke-width="2"/>
    <line id="Line_144" data-name="Line 144" x2="16.995" transform="translate(8.188 12.901)" fill="none" stroke="#fff" stroke-width="2"/>
    <line id="Line_145" data-name="Line 145" x2="16.995" transform="translate(8.188 17.536)" fill="none" stroke="#fff" stroke-width="2"/>
  </g>
</svg>
