<svg xmlns="http://www.w3.org/2000/svg" width="262.38" height="192.213" viewBox="0 0 262.38 192.213">
  <g id="Group_1810" data-name="Group 1810" transform="translate(-2665.774 -1911.442)">
    <path id="Path_1813" data-name="Path 1813" d="M2697.008,1978.253c43.922,10.926,77.1-26.645,120.656-49.776,79.034-41.977,129.727-.013,103.538,56.882-9.273,20.148,14.883,99.793-70.721,115.684-64.313,11.942-123.989-19.856-162.935-38.863-10.707-5.224-17.869-25.919-20.2-35.933C2662.595,2005.782,2667.533,1970.921,2697.008,1978.253Z" transform="translate(0 0)" fill="#e4efff"/>
    <g id="Group_1805" data-name="Group 1805" transform="translate(2666.866 1958.747)">
      <g id="Group_1798" data-name="Group 1798" transform="translate(54.438)">
        <g id="Group_1796" data-name="Group 1796">
          <path id="Path_1814" data-name="Path 1814" d="M2839.062,2054.914a7.79,7.79,0,0,0,1.747-4.44c.014-.9-.712-2.448-1.643-2.461s-1.7,1.111-1.716,2.409A7.793,7.793,0,0,0,2839.062,2054.914Z" transform="translate(-2833.514 -2048.012)" fill="#d1dbea"/>
          <path id="Path_1815" data-name="Path 1815" d="M2832.238,2071.589a6.629,6.629,0,0,0-1.816-3.715c-.567-.522-2-.936-2.561-.328s-.293,1.765.529,2.526A6.636,6.636,0,0,0,2832.238,2071.589Z" transform="translate(-2827.053 -2060.583)" fill="#d1dbea"/>
          <path id="Path_1816" data-name="Path 1816" d="M2831.787,2088.4a6.622,6.622,0,0,0-3.175-2.649c-.73-.246-2.206-.036-2.47.747s.452,1.731,1.514,2.089A6.629,6.629,0,0,0,2831.787,2088.4Z" transform="translate(-2826.088 -2072.617)" fill="#d1dbea"/>
          <path id="Path_1817" data-name="Path 1817" d="M2841.239,2073.01a7.435,7.435,0,0,0,3.859-1.205c.632-.442,1.411-1.654,1.022-2.207s-1.5-.441-2.423.2A7.42,7.42,0,0,0,2841.239,2073.01Z" transform="translate(-2835.991 -2061.888)" fill="#d1dbea"/>
          <path id="Path_1818" data-name="Path 1818" d="M2841.659,2086.482a7.173,7.173,0,0,0,3.9-1.147c.634-.441,1.393-1.679.983-2.265s-1.546-.5-2.464.143A7.181,7.181,0,0,0,2841.659,2086.482Z" transform="translate(-2836.265 -2070.669)" fill="#d1dbea"/>
          <path id="Path_1819" data-name="Path 1819" d="M2845.641,2106.1a4.772,4.772,0,0,0,3.152-.625c.483-.335.985-1.394.575-1.979a1.494,1.494,0,0,0-2.058-.143A4.787,4.787,0,0,0,2845.641,2106.1Z" transform="translate(-2838.868 -2083.962)" fill="#d1dbea"/>
          <path id="Path_1820" data-name="Path 1820" d="M2836.638,2107.084a5.746,5.746,0,0,0-2.292-2.383c-.557-.286-1.739-.352-2.008.176s.219,1.315,1.027,1.731A5.757,5.757,0,0,0,2836.638,2107.084Z" transform="translate(-2830.125 -2084.922)" fill="#d1dbea"/>
        </g>
        <g id="Group_1797" data-name="Group 1797" transform="translate(5.081 5.665)">
          <path id="Path_1821" data-name="Path 1821" d="M2842.336,2106.96a2.169,2.169,0,0,1-.906.167l.037-.431-.017.215.016-.216a2.5,2.5,0,0,0,1.956-1.069c1.054-1.264,1.618-3.452,1.675-6.5.081-4.178-.809-9.87-2.645-16.917-2.131-8.186-1.746-12.777-1.492-15.816.066-.778.122-1.452.117-2.023l.433,0c0,.594-.051,1.274-.118,2.064-.253,3.009-.634,7.557,1.479,15.669,4.087,15.689,2.728,21.615.869,23.824A3.445,3.445,0,0,1,2842.336,2106.96Z" transform="translate(-2840.758 -2064.366)" fill="#d1dbea"/>
        </g>
      </g>
      <g id="Group_1800" data-name="Group 1800" transform="translate(29.607 16.322)">
        <path id="Path_1822" data-name="Path 1822" d="M2797.1,2118.671a48.022,48.022,0,0,1,2,44.749,47.9,47.9,0,0,1-40.105-68.285A48.021,48.021,0,0,1,2797.1,2118.671Z" transform="translate(-2754.403 -2095.134)" fill="#e9f6ff"/>
        <g id="Group_1799" data-name="Group 1799" transform="translate(3.223 5.148)">
          <line id="Line_100" data-name="Line 100" x2="35.424" y2="60.313" transform="translate(4.737 0.109)" fill="none" stroke="#d1dbea" stroke-miterlimit="10" stroke-width="2.546"/>
          <line id="Line_101" data-name="Line 101" x1="11.672" y1="2.156" transform="translate(0.3 10.436)" fill="none" stroke="#d1dbea" stroke-miterlimit="10" stroke-width="2.546"/>
          <line id="Line_102" data-name="Line 102" x1="14.388" y1="2.658" transform="translate(3.626 20.216)" fill="none" stroke="#d1dbea" stroke-miterlimit="10" stroke-width="2.546"/>
          <line id="Line_103" data-name="Line 103" x1="24.051" y1="4.443" transform="translate(0 28.716)" fill="none" stroke="#d1dbea" stroke-miterlimit="10" stroke-width="2.546"/>
          <line id="Line_104" data-name="Line 104" x1="23.401" y1="4.32" transform="translate(6.691 39.124)" fill="none" stroke="#d1dbea" stroke-miterlimit="10" stroke-width="2.546"/>
          <line id="Line_105" data-name="Line 105" x1="13.03" y1="2.405" transform="translate(23.102 51.32)" fill="none" stroke="#d1dbea" stroke-miterlimit="10" stroke-width="2.546"/>
          <line id="Line_106" data-name="Line 106" y1="11.245" x2="3.802" transform="translate(11.423)" fill="none" stroke="#d1dbea" stroke-miterlimit="10" stroke-width="2.546"/>
          <line id="Line_107" data-name="Line 107" y1="17.531" x2="5.93" transform="translate(17.462 3.997)" fill="none" stroke="#d1dbea" stroke-miterlimit="10" stroke-width="2.546"/>
          <line id="Line_108" data-name="Line 108" y1="21.947" x2="7.421" transform="translate(23.503 9.866)" fill="none" stroke="#d1dbea" stroke-miterlimit="10" stroke-width="2.546"/>
          <line id="Line_109" data-name="Line 109" y1="22.541" x2="7.624" transform="translate(29.542 19.555)" fill="none" stroke="#d1dbea" stroke-miterlimit="10" stroke-width="2.546"/>
          <line id="Line_110" data-name="Line 110" y1="19.363" x2="6.548" transform="translate(35.583 33.017)" fill="none" stroke="#d1dbea" stroke-miterlimit="10" stroke-width="2.546"/>
        </g>
      </g>
      <g id="Group_1802" data-name="Group 1802" transform="translate(4.714 53.773)">
        <path id="Path_1823" data-name="Path 1823" d="M2719.426,2211.058a39.979,39.979,0,0,1,16.121,33.624,39.88,39.88,0,0,1-52.988-39.224A39.975,39.975,0,0,1,2719.426,2211.058Z" transform="translate(-2682.535 -2203.255)" fill="#e9f6ff"/>
        <g id="Group_1801" data-name="Group 1801" transform="translate(4.292 1.626)">
          <line id="Line_111" data-name="Line 111" x2="46.8" y2="34.643" transform="translate(0.031 3.503)" fill="none" stroke="#d1dbea" stroke-miterlimit="10" stroke-width="2.119"/>
          <line id="Line_112" data-name="Line 112" x1="9.644" y2="2.155" transform="translate(0 10.704)" fill="none" stroke="#d1dbea" stroke-miterlimit="10" stroke-width="2.119"/>
          <line id="Line_113" data-name="Line 113" x1="11.885" y2="2.658" transform="translate(5.737 16.61)" fill="none" stroke="#d1dbea" stroke-miterlimit="10" stroke-width="2.119"/>
          <line id="Line_114" data-name="Line 114" x1="19.872" y2="4.441" transform="translate(5.731 22.518)" fill="none" stroke="#d1dbea" stroke-miterlimit="10" stroke-width="2.119"/>
          <line id="Line_115" data-name="Line 115" x1="19.331" y2="4.322" transform="translate(14.251 28.425)" fill="none" stroke="#d1dbea" stroke-miterlimit="10" stroke-width="2.119"/>
          <line id="Line_116" data-name="Line 116" x1="10.763" y2="2.406" transform="translate(30.799 34.332)" fill="none" stroke="#d1dbea" stroke-miterlimit="10" stroke-width="2.119"/>
          <line id="Line_117" data-name="Line 117" x1="0.754" y1="9.852" transform="translate(8.029)" fill="none" stroke="#d1dbea" stroke-miterlimit="10" stroke-width="2.119"/>
          <line id="Line_118" data-name="Line 118" x1="1.175" y1="15.36" transform="translate(15.588 0.398)" fill="none" stroke="#d1dbea" stroke-miterlimit="10" stroke-width="2.119"/>
          <line id="Line_119" data-name="Line 119" x1="1.473" y1="19.229" transform="translate(23.27 2.437)" fill="none" stroke="#d1dbea" stroke-miterlimit="10" stroke-width="2.119"/>
          <line id="Line_120" data-name="Line 120" x1="1.512" y1="19.752" transform="translate(31.21 7.821)" fill="none" stroke="#d1dbea" stroke-miterlimit="10" stroke-width="2.119"/>
          <line id="Line_121" data-name="Line 121" x1="1.299" y1="16.967" transform="translate(39.403 16.513)" fill="none" stroke="#d1dbea" stroke-miterlimit="10" stroke-width="2.119"/>
        </g>
      </g>
      <path id="Path_1824" data-name="Path 1824" d="M2797.5,2243.364c8.342-5.544,1.585-7.168-6.394-6.851,3.735-3.933,1.214-7.487-8.459-11.227-4.343-1.68-9.514-.461-14.543,2.088-4.214-7.312-9.721-12.225-15.776-9.245-5,2.464-8.677,5.36-10.925,8.393q-2.395-.846-5.149-1.561c-3.995-1.031-6.889-.028-8.92,2.182-7.906-4.18-15.843-6.52-20.349-3.287-7.836,5.618-8.74,10.19-3.344,14.5-7.962.535-13.872,3.269-3.253,8.986-9.5-.672-16.227.521-11.988,5.948,9.445,12.1,51.973,12.73,83.471,5.982,19.969-1.728,36.5-5.889,39.486-12.294C2813.561,2242.263,2806.555,2241.941,2797.5,2243.364Z" transform="translate(-2680.809 -2158.625)" fill="#d1dbea"/>
      <g id="Group_1804" data-name="Group 1804" transform="translate(0 35.923)">
        <path id="Path_1825" data-name="Path 1825" d="M2669.347,2292c-1.311-2.013.32-3.726,6.542-4.636a50.813,50.813,0,0,1,18.621.913c-12.592-6.1-27.271-14.667-13.869-15.658,4.179-.309,10.606,1.714,17.753,4.875-7.974-6.489-12.36-11.823-7.53-12.813,4.485-.921,13.63,4.356,23.365,11.363-5.547-5.871-8.759-10.994-6.267-13.412,2.034-1.972,6.371.292,11.36,4.487-.222-3.689,1.327-5.915,4.865-5.469,3.327.421,6.022,4.69,7.946,9.812,3.192-7.944,11.621-12.8,20.125-10.389,9.989,2.831,1.964,21.876-2.506,30.928Z" transform="translate(-2668.926 -2222.786)" fill="#9dc1e2"/>
        <g id="Group_1803" data-name="Group 1803" transform="translate(12.809)">
          <path id="Path_1826" data-name="Path 1826" d="M2724.881,2166.1s15.708,16.081,23.643,54.972" transform="translate(-2718.309 -2161.122)" fill="none" stroke="#9dc1e2" stroke-miterlimit="10" stroke-width="1.372"/>
          <path id="Path_1827" data-name="Path 1827" d="M2773.673,2188.837s9.71,20.269,9.529,43.165" transform="translate(-2750.2 -2175.981)" fill="none" stroke="#9dc1e2" stroke-miterlimit="10" stroke-width="1.372"/>
          <path id="Path_1828" data-name="Path 1828" d="M2734.233,2234.632s14.589,7.682,14.5,28.665" transform="translate(-2724.42 -2205.914)" fill="none" stroke="#9dc1e2" stroke-miterlimit="10" stroke-width="1.372"/>
          <path id="Path_1829" data-name="Path 1829" d="M2710.635,2153.517c-3.295,1.907-5.339,4.533-4.567,5.869s4.07.871,7.365-1.034,5.339-4.533,4.568-5.869S2713.93,2151.612,2710.635,2153.517Z" transform="translate(-2705.905 -2151.721)" fill="#9dc1e2"/>
          <path id="Path_1830" data-name="Path 1830" d="M2719.485,2160.594c-1.047.606-1.7,1.44-1.451,1.864s1.291.277,2.338-.328,1.7-1.44,1.452-1.863S2720.53,2159.99,2719.485,2160.594Z" transform="translate(-2713.799 -2157.148)" fill="#0c1153"/>
          <path id="Path_1831" data-name="Path 1831" d="M2767.741,2183.6c-1.372.792-2.223,1.887-1.9,2.443s1.694.363,3.066-.43,2.225-1.887,1.9-2.442S2769.113,2182.805,2767.741,2183.6Z" transform="translate(-2745.035 -2172.068)" fill="#9dc1e2"/>
          <path id="Path_1832" data-name="Path 1832" d="M2771.425,2186.543c-.435.252-.705.6-.6.777s.538.116.974-.137.705-.6.6-.776S2771.861,2186.291,2771.425,2186.543Z" transform="translate(-2748.322 -2174.326)" fill="#0c1153"/>
          <path id="Path_1833" data-name="Path 1833" d="M2727.855,2228.235c-1.441,1.449-2.131,3.1-1.546,3.68s2.232-.118,3.673-1.567,2.131-3.1,1.545-3.682S2729.295,2226.785,2727.855,2228.235Z" transform="translate(-2719.105 -2200.572)" fill="#9dc1e2"/>
          <path id="Path_1834" data-name="Path 1834" d="M2732.208,2232.6c-.456.461-.676.985-.489,1.169s.709-.038,1.167-.5.676-.983.491-1.168S2732.667,2232.142,2732.208,2232.6Z" transform="translate(-2722.734 -2204.219)" fill="#0c1153"/>
        </g>
        <path id="Path_1835" data-name="Path 1835" d="M2769.853,2306.628c-.054-.044-.107-.082-.162-.121.029-.01.058-.019.085-.03.747-.294,1.229-.848,1.075-1.235s-.883-.471-1.629-.178c-.064.024-.125.054-.184.081,0-.03.01-.06.014-.09.12-.792-.117-1.485-.531-1.547s-.847.528-.968,1.321c-.011.068-.018.135-.023.2-.023-.019-.045-.04-.068-.059-.626-.5-1.347-.641-1.609-.313s.035,1,.662,1.5c.054.043.107.083.162.12l-.085.031c-.744.292-1.227.845-1.075,1.235s.883.469,1.628.178c.064-.025.125-.052.185-.082,0,.03-.011.061-.016.091-.121.793.119,1.486.533,1.548s.847-.529.968-1.321c.01-.068.015-.134.022-.2.023.02.045.041.069.059.626.5,1.345.641,1.607.314S2770.48,2307.128,2769.853,2306.628Zm-1.787.541a.786.786,0,1,1,.9-.658A.786.786,0,0,1,2768.066,2307.168Z" transform="translate(-2732.042 -2250.929)" fill="#fff"/>
      </g>
    </g>
    <path id="Path_1836" data-name="Path 1836" d="M2873.477,2170.4s-1.626-13.415-11.992-13.415c-10.978,0-17.687-.47-23.578.406-5.087.756-11.992,5.284-10.163,17.886,2.641,18.195,10.57,49.6,10.57,49.6h46.545l-9.959-47.156Z" transform="translate(-105.67 -160.409)" fill="#0059b6"/>
    <path id="Path_1837" data-name="Path 1837" d="M2886.193,2170.4s-1.453-13.415-10.718-13.415c-9.812,0-15.808-.47-21.073.406-4.547.756-10.719,5.284-9.083,17.886,2.36,18.195,9.446,49.6,9.446,49.6h41.6l-8.9-47.156Z" transform="translate(-117.178 -160.409)" fill="#0063cb"/>
    <g id="Group_1808" data-name="Group 1808" transform="translate(2742.405 1952.03)">
      <g id="Group_1806" data-name="Group 1806" transform="translate(42.811 94.117)">
        <path id="Path_1838" data-name="Path 1838" d="M3011.138,2302.819s-4.453,3.167,12.382,4.893,41.952.488,41.952.488l-38.5-7.294S3016.346,2298.752,3011.138,2302.819Z" transform="translate(-3010.604 -2300.336)" fill="#e9d6b8"/>
        <path id="Path_1839" data-name="Path 1839" d="M3125.355,2319.133c7.984,1.047,10.911,5.132,13.915,6.671a57.01,57.01,0,0,1,5.934,3.65c-1.346-3.33-3.918-3.765-5.071-4.934s-.883-.626,1.987-.451c1.628.1,4.112,3.067,5.962,4.763a6.866,6.866,0,0,0,2.7,1.721,33.294,33.294,0,0,0-4.055-5.337,41.39,41.39,0,0,0-7.353-6.062c-1.621-.829-6.934-1.7-10.8-1.731C3124.208,2317.377,3119.6,2318.381,3125.355,2319.133Z" transform="translate(-3083.849 -2311.503)" fill="#e9d6b8"/>
        <path id="Path_1840" data-name="Path 1840" d="M3169.622,2322.688s5.915,2.208,6.89,3.087c.67.6,3.383,3.993,3.383,3.993a8.434,8.434,0,0,1-3.4-1.939C3175.327,2326.534,3169.622,2322.688,3169.622,2322.688Z" transform="translate(-3114.541 -2314.946)" fill="#e9d6b8"/>
      </g>
      <path id="Path_1841" data-name="Path 1841" d="M3034.609,2300.581s-4.357,6.846-5.187,8.921-18.258-1.66-18.258-1.66-17.73-8.323-5.81-10.789C3011.371,2295.809,3034.609,2300.581,3034.609,2300.581Z" transform="translate(-2961.669 -2203.938)" fill="#4e99ff"/>
      <path id="Path_1842" data-name="Path 1842" d="M3013.418,2121.086a16.628,16.628,0,1,1-7.813-21.912A16.45,16.45,0,0,1,3013.418,2121.086Z" transform="translate(-2949.037 -2073.613)" fill="#194866"/>
      <path id="Path_1843" data-name="Path 1843" d="M2926.795,2115.22a21,21,0,1,1-9.866-27.676A20.778,20.778,0,0,1,2926.795,2115.22Z" transform="translate(-2887.009 -2065.717)" fill="#194866"/>
      <path id="Path_1844" data-name="Path 1844" d="M2958.055,2082.586a16.629,16.629,0,1,1-7.819-21.916A16.457,16.457,0,0,1,2958.055,2082.586Z" transform="translate(-2912.851 -2048.448)" fill="#194866"/>
      <path id="Path_1845" data-name="Path 1845" d="M3021.328,2057.521a12.506,12.506,0,0,1-16.718,5.77l-.212-6.71a12.5,12.5,0,0,1-5.754-16.714l2.053-4.216a12.5,12.5,0,0,1,16.713-5.767l2.806,1.366a12.511,12.511,0,0,1,5.765,16.722Z" transform="translate(-2959.148 -2028.618)" fill="#194866"/>
      <path id="Path_1846" data-name="Path 1846" d="M3010.945,2056.246a24.786,24.786,0,0,1-1.813,3.036c-4.652,6.663-11.709,10-16.832,8.34a38.056,38.056,0,0,1-5.835,7.935c-2.283,2.406-7.08,3.793-7.08,3.793-3.266,4.641-1.419,18.009,10.264,19.389,7.028.824,5.591-6.576,3.136-11.193-1.146-2.168-1.936-4.546.771-8.455,2.706-3.308,4.811-1.2,4.811-1.2,3.307,2.1,4.3-.435,5.413-1.654a8.916,8.916,0,0,0,1.5-2.173l5.7-10A8.847,8.847,0,0,0,3010.945,2056.246Z" transform="translate(-2946.448 -2046.676)" fill="#e9d6b8"/>
      <path id="Path_1847" data-name="Path 1847" d="M2988.574,2224.93s10.374.623,12.448.415c2.1-.21,1.868-1.659,1.868-1.659s1.136-23.669,2.536-33.65,2.878-13.229,2.858-16.353c-.031-4.985-.575-6.087-1.453-9.958s-5.809-12.52-5.809-11.2c0,2.283-1.5,4.225-6.432-1.245C2993.735,2150.337,2988.574,2224.93,2988.574,2224.93Z" transform="translate(-2953.394 -2108.784)" fill="#0063cb"/>
      <path id="Path_1848" data-name="Path 1848" d="M3015.958,2136.317s7.728,2.45,7.262,8.507c-.208,2.7,3.942,14.524,3.527,21.992-.6,10.858,1.459,14.356,1.189,22.2s1.544,9.6.884,19.234c-.515,7.542-1.865,7.116-1.865,7.116a56.092,56.092,0,0,0-6.847.416c-3.784.445-.649-24.213.3-30.675s4.749-23.4,4.523-27.9-4.444-10.97-5.237-12.381C3017.7,2141.295,3015.384,2136.685,3015.958,2136.317Z" transform="translate(-2971.235 -2099.012)" fill="#2b83fd"/>
      <path id="Path_1849" data-name="Path 1849" d="M2942.056,2206.561s2.823-25.534,4.431-37.62-2.7-35.341-2.329-38.247a5.207,5.207,0,0,1,2.282-3.942s-6.414-5.86-10.166-4.979a89.18,89.18,0,0,0-12.275,4.283c-3.567,1.45-1.7,42.156-2.019,44.3-1.152,7.725-4.951,16.585-7.412,22.705a88.211,88.211,0,0,0-3.469,12.129S2930.673,2205.8,2942.056,2206.561Z" transform="translate(-2902.754 -2089.447)" fill="#2b83fd"/>
      <path id="Path_1850" data-name="Path 1850" d="M2941.74,2183.264l5.477-37.093s-1.357-7.639-3.73-10.253c-2.81-3.1-8.171-2.184-8.171-2.184s-6.266,5.14-6.715,34.5c-.3,20.1-2.146,28.36,6.511,29.235,8.082.817,24.186-3.173,24.186-3.173l.415-13.693Z" transform="translate(-2913.952 -2097.241)" fill="#fec12f"/>
      <path id="Path_1851" data-name="Path 1851" d="M3024.726,2155.7c-.892-4.323-4.325-9.615-5.033-10.875-1.99-3.529-4.309-8.139-3.735-8.507,0,0,7.728,2.45,7.262,8.507-.208,2.7,3.942,14.524,3.527,21.992-.6,10.74,1.414,14.284,1.194,21.948-1.434-4.049-2.646-8.125-2.646-10.33C3025.3,2173.095,3026.513,2158.41,3024.726,2155.7Z" transform="translate(-2971.235 -2099.012)" fill="#4e99ff"/>
      <g id="Group_1807" data-name="Group 1807" transform="translate(42.441 70.345)">
        <path id="Path_1852" data-name="Path 1852" d="M3071.545,2260.944h12.449l1.659-22.2h-15.768Z" transform="translate(-3048.982 -2236.306)" fill="#acd4f8"/>
        <path id="Path_1853" data-name="Path 1853" d="M3069.436,2233.469h16.08l-.83-1.764h-14.419Z" transform="translate(-3048.688 -2231.705)" fill="#acd4f8"/>
        <path id="Path_1854" data-name="Path 1854" d="M3010.159,2255.52l15.977-3.942,4.564-4.565.208,1.867s13.486-2.282,15.767-2.7a16.082,16.082,0,0,1,4.773,0s1.867.83-.208,1.245l-4.149.83a21,21,0,0,1-1.453,4.358c-.623.829,1.66-.416,1.66-.416a3.471,3.471,0,0,1-1.452,2.49,17.528,17.528,0,0,1-7.053,1.66c-2.906,0-5.187.414-5.809,1.245s-3.32.621-4.357.829-19.088,6.432-19.088,6.432Z" transform="translate(-3009.537 -2241.048)" fill="#e9d6b8"/>
        <rect id="Rectangle_319" data-name="Rectangle 319" width="18.051" height="1.66" transform="translate(19.762 1.401)" fill="#9dc1e2"/>
      </g>
      <path id="Path_1855" data-name="Path 1855" d="M2941.74,2183.264l5.477-37.093s-1.357-7.639-3.73-10.253c-2.81-3.1-8.171-2.184-8.171-2.184s-6.266,5.14-6.715,34.5c-.3,20.1-2.146,28.36,6.511,29.235,8.082.817,24.186-3.173,24.186-3.173l.415-13.693Z" transform="translate(-2913.952 -2097.241)" fill="#4e99ff"/>
    </g>
    <g id="Group_1809" data-name="Group 1809" transform="translate(2806.063 2020.195)">
      <path id="Path_1856" data-name="Path 1856" d="M3220.263,2225.412h-26.311a3,3,0,0,0-2.584,1.894l-14.309,39.314h30.1l14.309-39.314A1.282,1.282,0,0,0,3220.263,2225.412Z" transform="translate(-3140.249 -2225.412)" fill="#b5d1de"/>
      <path id="Path_1857" data-name="Path 1857" d="M3070.788,2343.708v1.164a1.862,1.862,0,0,0,1.863,1.862h63.541a1.863,1.863,0,0,0,1.863-1.862v-1.164Z" transform="translate(-3070.788 -2302.732)" fill="#a1b9c5"/>
      <path id="Path_1858" data-name="Path 1858" d="M3107.573,2344.872v-1.164h-36.785v1.164a1.862,1.862,0,0,0,1.863,1.862h33.06A1.862,1.862,0,0,0,3107.573,2344.872Z" transform="translate(-3070.788 -2302.732)" fill="#8da2ac"/>
    </g>
    <path id="Path_1859" data-name="Path 1859" d="M3031,2353.46c-9.121,16.249-25.637,30.01-55.937,35.773-61.2,11.647-117.973-17.7-156.821-35.773Z" transform="translate(-124.851 -288.912)" fill="#d8e5ed"/>
  </g>
</svg>
