<svg xmlns="http://www.w3.org/2000/svg" viewBox="0 0 200 200">
  <defs>
    <style>
      .cls-1 {
        fill: #a8b2ef;
      }

      .cls-2 {
        fill: #b4d2d7;
      }

      .cls-3 {
        fill: #9bb9c3;
      }

      .cls-4 {
        fill: #e1ebf0;
      }

      .cls-5 {
        fill: #fff5f5;
      }

      .cls-6 {
        fill: #ade8f0;
      }

      .cls-7 {
        fill: #ffdf8e;
      }

      .cls-8 {
        fill: #57bd91;
      }

      .cls-9 {
        fill: #22b27f;
      }

      .cls-10 {
        fill: #f02399;
      }

      .cls-11 {
        fill: #fd4fb6;
      }

      .cls-12 {
        fill: #d80d80;
      }
    </style>
  </defs>
  <g id="SampleCourse" transform="translate(-788 -446)">
    <g id="_021-graphic" data-name="021-graphic" transform="translate(788 446)">
      <path id="Path_153" data-name="Path 153" class="cls-1" d="M28.274,169.671a100,100,0,1,1,147.439-4.345,358.613,358.613,0,0,0-63.6-5.561A347.462,347.462,0,0,0,28.274,169.671Z" transform="translate(0)"/>
      <path id="Path_154" data-name="Path 154" class="cls-2" d="M71.25,49.766V102.5H40.781a.781.781,0,0,1-.781-.781V49.766A9.766,9.766,0,0,1,49.766,40H61.484A9.766,9.766,0,0,1,71.25,49.766Z" transform="translate(-24.375 -24.375)"/>
      <path id="Path_155" data-name="Path 155" class="cls-3" d="M54.978,40.819A9.728,9.728,0,0,1,58.893,40H70.612a9.766,9.766,0,0,1,9.766,9.766V102.5H60.846V49.766A9.76,9.76,0,0,0,54.978,40.819Z" transform="translate(-33.502 -24.375)"/>
      <path id="Path_156" data-name="Path 156" class="cls-4" d="M218.438,47.813V189.621A99.99,99.99,0,0,1,77.813,200.5V49.766A9.769,9.769,0,0,0,70,40.2V40H210.625A7.812,7.812,0,0,1,218.438,47.813Z" transform="translate(-42.656 -24.375)"/>
      <path id="Path_157" data-name="Path 157" class="cls-3" d="M154.3,211.953v3.906a1.953,1.953,0,0,1-1.953,1.953H126.953A1.953,1.953,0,0,1,125,215.859v-3.906A1.953,1.953,0,0,1,126.953,210h25.391A1.953,1.953,0,0,1,154.3,211.953Zm83.984,80.078H212.891a1.953,1.953,0,0,0-1.953,1.953v3.906a1.953,1.953,0,0,0,1.953,1.953h25.391a1.953,1.953,0,0,0,1.953-1.953v-3.906A1.953,1.953,0,0,0,238.281,292.031Z" transform="translate(-76.172 -127.969)"/>
      <path id="Path_158" data-name="Path 158" class="cls-2" d="M154.3,113.2v3.906a1.953,1.953,0,0,1-1.953,1.953H126.953A1.953,1.953,0,0,1,125,117.109V113.2a1.953,1.953,0,0,1,1.953-1.953h25.391A1.953,1.953,0,0,1,154.3,113.2Zm5.859-17.578h-33.2A1.953,1.953,0,0,0,125,97.578v3.906a1.953,1.953,0,0,0,1.953,1.953h33.2a1.953,1.953,0,0,0,1.953-1.953V97.578A1.953,1.953,0,0,0,160.156,95.625Zm0-15.625h-33.2A1.953,1.953,0,0,0,125,81.953v3.906a1.953,1.953,0,0,0,1.953,1.953h33.2a1.953,1.953,0,0,0,1.953-1.953V81.953A1.953,1.953,0,0,0,160.156,80Zm78.125,97.656H212.891a1.953,1.953,0,0,0-1.953,1.953v3.906a1.953,1.953,0,0,0,1.953,1.953h25.391a1.953,1.953,0,0,0,1.953-1.953v-3.906A1.953,1.953,0,0,0,238.281,177.656Zm0,15.625h-33.2a1.953,1.953,0,0,0-1.953,1.953v3.906a1.953,1.953,0,0,0,1.953,1.953h33.2a1.953,1.953,0,0,0,1.953-1.953v-3.906A1.953,1.953,0,0,0,238.281,193.281Zm0-31.25h-33.2a1.953,1.953,0,0,0-1.953,1.953v3.906a1.953,1.953,0,0,0,1.953,1.953h33.2a1.953,1.953,0,0,0,1.953-1.953v-3.906A1.953,1.953,0,0,0,238.281,162.031Z" transform="translate(-76.172 -48.75)"/>
      <path id="Path_159" data-name="Path 159" class="cls-5" d="M240,134.453v-62.5A1.953,1.953,0,0,1,241.953,70h82.031a1.953,1.953,0,0,1,1.953,1.953v62.5a1.953,1.953,0,0,1-1.953,1.953H241.953A1.953,1.953,0,0,1,240,134.453Z" transform="translate(-146.25 -42.656)"/>
      <path id="Path_160" data-name="Path 160" class="cls-6" d="M260,90h70.312v50.781H260Z" transform="translate(-158.438 -54.844)"/>
      <path id="Path_161" data-name="Path 161" class="cls-7" d="M293.438,111.719A11.719,11.719,0,1,1,281.719,100,11.719,11.719,0,0,1,293.438,111.719Z" transform="translate(-164.531 -60.938)"/>
      <path id="Path_162" data-name="Path 162" class="cls-8" d="M355.192,118.532v29.291a.781.781,0,0,1-.781.781H307.925l-6.868-6.868a.781.781,0,0,1,0-1.1l37.565-37.565a.781.781,0,0,1,1.1,0Z" transform="translate(-183.317 -62.667)"/>
      <path id="Path_163" data-name="Path 163" class="cls-9" d="M317.376,160.792H260.781a.781.781,0,0,1-.781-.781V141.653l18.586-18.586a.781.781,0,0,1,1.1,0l37.565,37.565A.777.777,0,0,1,317.376,160.792Z" transform="translate(-158.438 -74.855)"/>
      <path id="Path_164" data-name="Path 164" class="cls-10" d="M70,354.453v-62.5A1.953,1.953,0,0,1,71.953,290h82.031a1.953,1.953,0,0,1,1.953,1.953v62.5a1.953,1.953,0,0,1-1.953,1.953H71.953A1.953,1.953,0,0,1,70,354.453Z" transform="translate(-42.656 -176.719)"/>
      <path id="Path_165" data-name="Path 165" class="cls-11" d="M90,356.406V290h76.172a1.953,1.953,0,0,1,1.953,1.953v62.5a1.953,1.953,0,0,1-1.953,1.953Z" transform="translate(-54.844 -176.719)"/>
      <path id="Path_166" data-name="Path 166" class="cls-5" d="M169.062,344.531A19.531,19.531,0,1,1,149.531,325,19.531,19.531,0,0,1,169.062,344.531Z" transform="translate(-79.219 -198.047)"/>
      <path id="Path_167" data-name="Path 167" class="cls-12" d="M180.067,356.065,162.41,367.479A1.563,1.563,0,0,1,160,366.167V343.339a1.563,1.563,0,0,1,2.411-1.312l17.657,11.414A1.562,1.562,0,0,1,180.067,356.065Z" transform="translate(-97.499 -208.268)"/>
    </g>
  </g>
</svg>
